<mxfile host="app.diagrams.net" agent="Mozilla/5.0 (Windows NT 10.0; Win64; x64) AppleWebKit/537.36 (KHTML, like Gecko) Chrome/138.0.0.0 Safari/537.36" version="28.0.4">
  <diagram name="第 1 页" id="ggnivI-zyW83UGlkHyZT">
    <mxGraphModel dx="10330" dy="5555" grid="1" gridSize="10" guides="1" tooltips="1" connect="1" arrows="1" fold="1" page="1" pageScale="1" pageWidth="827" pageHeight="1169" math="0" shadow="0">
      <root>
        <mxCell id="0" />
        <mxCell id="1" parent="0" />
        <mxCell id="jE9lUmCRKCD1lappJOkZ-30" value="" style="rounded=0;whiteSpace=wrap;html=1;" vertex="1" parent="1">
          <mxGeometry x="757" y="220" width="613" height="1220" as="geometry" />
        </mxCell>
        <mxCell id="jE9lUmCRKCD1lappJOkZ-28" value="" style="rounded=0;whiteSpace=wrap;html=1;" vertex="1" parent="1">
          <mxGeometry x="160" y="350" width="380" height="330" as="geometry" />
        </mxCell>
        <mxCell id="jE9lUmCRKCD1lappJOkZ-9" style="edgeStyle=orthogonalEdgeStyle;rounded=0;orthogonalLoop=1;jettySize=auto;html=1;exitX=0.5;exitY=1;exitDx=0;exitDy=0;" edge="1" parent="1" source="jE9lUmCRKCD1lappJOkZ-3" target="jE9lUmCRKCD1lappJOkZ-7">
          <mxGeometry relative="1" as="geometry" />
        </mxCell>
        <mxCell id="jE9lUmCRKCD1lappJOkZ-3" value="&lt;font style=&quot;font-size: 25px;&quot; face=&quot;Times New Roman&quot;&gt;Arbiter&lt;/font&gt;" style="rounded=0;whiteSpace=wrap;html=1;" vertex="1" parent="1">
          <mxGeometry x="1840" y="2010" width="720" height="160" as="geometry" />
        </mxCell>
        <mxCell id="jE9lUmCRKCD1lappJOkZ-11" style="edgeStyle=orthogonalEdgeStyle;rounded=0;orthogonalLoop=1;jettySize=auto;html=1;exitX=0.5;exitY=1;exitDx=0;exitDy=0;" edge="1" parent="1" source="jE9lUmCRKCD1lappJOkZ-7" target="jE9lUmCRKCD1lappJOkZ-10">
          <mxGeometry relative="1" as="geometry">
            <Array as="points">
              <mxPoint x="2200" y="2540" />
              <mxPoint x="1945" y="2540" />
            </Array>
          </mxGeometry>
        </mxCell>
        <mxCell id="jE9lUmCRKCD1lappJOkZ-7" value="&lt;font style=&quot;font-size: 25px;&quot; face=&quot;Times New Roman&quot;&gt;Xbar&lt;/font&gt;" style="rounded=0;whiteSpace=wrap;html=1;" vertex="1" parent="1">
          <mxGeometry x="1840" y="2250" width="720" height="160" as="geometry" />
        </mxCell>
        <mxCell id="jE9lUmCRKCD1lappJOkZ-10" value="&lt;font style=&quot;font-size: 25px;&quot; face=&quot;Times New Roman&quot;&gt;CLINT&lt;/font&gt;" style="whiteSpace=wrap;html=1;aspect=fixed;" vertex="1" parent="1">
          <mxGeometry x="1860" y="2600" width="170" height="170" as="geometry" />
        </mxCell>
        <mxCell id="jE9lUmCRKCD1lappJOkZ-12" value="&lt;font style=&quot;font-size: 30px;&quot; face=&quot;Times New Roman&quot;&gt;YSYXSOC&lt;/font&gt;" style="text;html=1;align=center;verticalAlign=middle;resizable=0;points=[];autosize=1;strokeColor=none;fillColor=none;" vertex="1" parent="1">
          <mxGeometry x="2320" y="2660" width="160" height="50" as="geometry" />
        </mxCell>
        <mxCell id="jE9lUmCRKCD1lappJOkZ-13" style="edgeStyle=orthogonalEdgeStyle;rounded=0;orthogonalLoop=1;jettySize=auto;html=1;exitX=0.5;exitY=1;exitDx=0;exitDy=0;entryX=0.529;entryY=-0.075;entryDx=0;entryDy=0;entryPerimeter=0;" edge="1" parent="1" source="jE9lUmCRKCD1lappJOkZ-7" target="jE9lUmCRKCD1lappJOkZ-12">
          <mxGeometry relative="1" as="geometry">
            <Array as="points">
              <mxPoint x="2200" y="2540" />
              <mxPoint x="2404" y="2540" />
            </Array>
          </mxGeometry>
        </mxCell>
        <mxCell id="jE9lUmCRKCD1lappJOkZ-16" style="edgeStyle=orthogonalEdgeStyle;rounded=0;orthogonalLoop=1;jettySize=auto;html=1;exitX=1;exitY=0.5;exitDx=0;exitDy=0;entryX=0;entryY=0.5;entryDx=0;entryDy=0;fontFamily=Times New Roman;fontSize=19;" edge="1" parent="1" source="jE9lUmCRKCD1lappJOkZ-14" target="jE9lUmCRKCD1lappJOkZ-15">
          <mxGeometry relative="1" as="geometry" />
        </mxCell>
        <mxCell id="jE9lUmCRKCD1lappJOkZ-17" value="PC" style="edgeLabel;html=1;align=center;verticalAlign=middle;resizable=0;points=[];fontFamily=Times New Roman;fontSize=20;" vertex="1" connectable="0" parent="jE9lUmCRKCD1lappJOkZ-16">
          <mxGeometry x="-0.1222" y="1" relative="1" as="geometry">
            <mxPoint as="offset" />
          </mxGeometry>
        </mxCell>
        <mxCell id="jE9lUmCRKCD1lappJOkZ-14" value="&lt;font style=&quot;font-size: 20px;&quot; face=&quot;Times New Roman&quot;&gt;PC&lt;/font&gt;" style="rounded=0;whiteSpace=wrap;html=1;" vertex="1" parent="1">
          <mxGeometry x="200" y="480" width="50" height="135" as="geometry" />
        </mxCell>
        <mxCell id="jE9lUmCRKCD1lappJOkZ-15" value="&lt;font style=&quot;font-size: 20px;&quot; face=&quot;Times New Roman&quot;&gt;Inst&lt;br&gt;MEM&lt;/font&gt;" style="rounded=0;whiteSpace=wrap;html=1;" vertex="1" parent="1">
          <mxGeometry x="360" y="480" width="120" height="135" as="geometry" />
        </mxCell>
        <mxCell id="jE9lUmCRKCD1lappJOkZ-29" value="&lt;font style=&quot;font-size: 24px;&quot; face=&quot;Times New Roman&quot;&gt;IFU&lt;/font&gt;" style="text;html=1;align=center;verticalAlign=middle;whiteSpace=wrap;rounded=0;" vertex="1" parent="1">
          <mxGeometry x="320" y="360" width="60" height="30" as="geometry" />
        </mxCell>
        <mxCell id="jE9lUmCRKCD1lappJOkZ-31" value="&lt;font style=&quot;font-size: 24px;&quot; face=&quot;Times New Roman&quot;&gt;IDU&lt;/font&gt;" style="text;html=1;align=center;verticalAlign=middle;whiteSpace=wrap;rounded=0;" vertex="1" parent="1">
          <mxGeometry x="1033.5" y="230" width="60" height="30" as="geometry" />
        </mxCell>
        <mxCell id="jE9lUmCRKCD1lappJOkZ-33" value="&lt;font style=&quot;font-size: 24px;&quot; face=&quot;Times New Roman&quot;&gt;if_valid&lt;/font&gt;" style="text;html=1;align=center;verticalAlign=middle;whiteSpace=wrap;rounded=0;" vertex="1" parent="1">
          <mxGeometry x="599.05" y="428.82" width="60" height="30" as="geometry" />
        </mxCell>
        <mxCell id="jE9lUmCRKCD1lappJOkZ-35" value="&lt;font style=&quot;font-size: 24px;&quot; face=&quot;Times New Roman&quot;&gt;id_ready&lt;/font&gt;" style="text;html=1;align=center;verticalAlign=middle;resizable=0;points=[];autosize=1;strokeColor=none;fillColor=none;" vertex="1" parent="1">
          <mxGeometry x="585" y="613" width="110" height="40" as="geometry" />
        </mxCell>
        <mxCell id="jE9lUmCRKCD1lappJOkZ-36" value="&lt;font style=&quot;font-size: 24px;&quot; face=&quot;Times New Roman&quot;&gt;controller&lt;/font&gt;" style="rounded=0;whiteSpace=wrap;html=1;" vertex="1" parent="1">
          <mxGeometry x="870" y="310" width="120" height="610" as="geometry" />
        </mxCell>
        <mxCell id="jE9lUmCRKCD1lappJOkZ-39" value="&lt;font style=&quot;font-size: 24px;&quot; face=&quot;Times New Roman&quot;&gt;instruction&lt;/font&gt;" style="text;html=1;align=center;verticalAlign=middle;whiteSpace=wrap;rounded=0;" vertex="1" parent="1">
          <mxGeometry x="610" y="490" width="60" height="30" as="geometry" />
        </mxCell>
        <mxCell id="jE9lUmCRKCD1lappJOkZ-40" value="" style="endArrow=classic;html=1;rounded=0;entryX=-0.002;entryY=0.611;entryDx=0;entryDy=0;entryPerimeter=0;" edge="1" parent="1">
          <mxGeometry width="50" height="50" relative="1" as="geometry">
            <mxPoint x="540.95" y="580" as="sourcePoint" />
            <mxPoint x="757.0040000000001" y="580.51" as="targetPoint" />
            <Array as="points">
              <mxPoint x="640.95" y="581" />
            </Array>
          </mxGeometry>
        </mxCell>
        <mxCell id="jE9lUmCRKCD1lappJOkZ-41" value="" style="endArrow=classic;html=1;rounded=0;entryX=0.001;entryY=0.344;entryDx=0;entryDy=0;entryPerimeter=0;edgeStyle=orthogonalEdgeStyle;" edge="1" parent="1" target="jE9lUmCRKCD1lappJOkZ-36">
          <mxGeometry width="50" height="50" relative="1" as="geometry">
            <mxPoint x="480" y="520" as="sourcePoint" />
            <mxPoint x="760" y="520" as="targetPoint" />
          </mxGeometry>
        </mxCell>
        <mxCell id="jE9lUmCRKCD1lappJOkZ-42" value="&lt;font style=&quot;font-size: 24px;&quot; face=&quot;Times New Roman&quot;&gt;PCW&lt;/font&gt;" style="text;html=1;align=center;verticalAlign=middle;whiteSpace=wrap;rounded=0;" vertex="1" parent="1">
          <mxGeometry x="620" y="550" width="60" height="30" as="geometry" />
        </mxCell>
        <mxCell id="jE9lUmCRKCD1lappJOkZ-43" value="" style="endArrow=none;html=1;rounded=0;entryX=-0.002;entryY=0.611;entryDx=0;entryDy=0;entryPerimeter=0;startArrow=classic;startFill=1;endFill=0;" edge="1" parent="1">
          <mxGeometry width="50" height="50" relative="1" as="geometry">
            <mxPoint x="540" y="651.95" as="sourcePoint" />
            <mxPoint x="756.0540000000001" y="652.46" as="targetPoint" />
            <Array as="points">
              <mxPoint x="640" y="652.95" />
            </Array>
          </mxGeometry>
        </mxCell>
        <mxCell id="jE9lUmCRKCD1lappJOkZ-44" value="" style="endArrow=classic;html=1;rounded=0;entryX=-0.002;entryY=0.611;entryDx=0;entryDy=0;entryPerimeter=0;" edge="1" parent="1">
          <mxGeometry width="50" height="50" relative="1" as="geometry">
            <mxPoint x="540" y="458.82" as="sourcePoint" />
            <mxPoint x="756.0540000000001" y="459.33" as="targetPoint" />
            <Array as="points">
              <mxPoint x="640" y="459.82" />
            </Array>
          </mxGeometry>
        </mxCell>
        <mxCell id="jE9lUmCRKCD1lappJOkZ-48" value="&lt;span style=&quot;color: rgb(0, 0, 0); font-style: normal; font-variant-ligatures: normal; font-variant-caps: normal; font-weight: 400; letter-spacing: normal; orphans: 2; text-align: center; text-indent: 0px; text-transform: none; widows: 2; word-spacing: 0px; -webkit-text-stroke-width: 0px; white-space: normal; text-decoration-thickness: initial; text-decoration-style: initial; text-decoration-color: initial; float: none; display: inline !important;&quot;&gt;&lt;font style=&quot;font-size: 20px;&quot; face=&quot;Times New Roman&quot;&gt;mem_valid&lt;/font&gt;&lt;/span&gt;" style="text;whiteSpace=wrap;html=1;" vertex="1" parent="1">
          <mxGeometry x="770.25" y="300" width="70" height="38" as="geometry" />
        </mxCell>
        <mxCell id="jE9lUmCRKCD1lappJOkZ-49" value="" style="endArrow=classic;html=1;rounded=0;" edge="1" parent="1">
          <mxGeometry width="50" height="50" relative="1" as="geometry">
            <mxPoint x="770.75" y="338" as="sourcePoint" />
            <mxPoint x="870.75" y="338" as="targetPoint" />
          </mxGeometry>
        </mxCell>
        <mxCell id="jE9lUmCRKCD1lappJOkZ-51" value="&lt;span style=&quot;color: rgb(0, 0, 0); font-style: normal; font-variant-ligatures: normal; font-variant-caps: normal; font-weight: 400; letter-spacing: normal; orphans: 2; text-align: center; text-indent: 0px; text-transform: none; widows: 2; word-spacing: 0px; -webkit-text-stroke-width: 0px; white-space: normal; text-decoration-thickness: initial; text-decoration-style: initial; text-decoration-color: initial; float: none; display: inline !important;&quot;&gt;&lt;font style=&quot;font-size: 20px;&quot; face=&quot;Times New Roman&quot;&gt;wb_ready&lt;/font&gt;&lt;/span&gt;" style="text;whiteSpace=wrap;html=1;" vertex="1" parent="1">
          <mxGeometry x="780.25" y="348.95" width="70" height="38" as="geometry" />
        </mxCell>
        <mxCell id="jE9lUmCRKCD1lappJOkZ-52" value="" style="endArrow=classic;html=1;rounded=0;entryX=-0.001;entryY=0.146;entryDx=0;entryDy=0;entryPerimeter=0;" edge="1" parent="1">
          <mxGeometry width="50" height="50" relative="1" as="geometry">
            <mxPoint x="770.25" y="388.95" as="sourcePoint" />
            <mxPoint x="870.1300000000001" y="389.0600000000002" as="targetPoint" />
          </mxGeometry>
        </mxCell>
        <mxCell id="jE9lUmCRKCD1lappJOkZ-53" value="&lt;span style=&quot;color: rgb(0, 0, 0); font-style: normal; font-variant-ligatures: normal; font-variant-caps: normal; font-weight: 400; letter-spacing: normal; orphans: 2; text-align: center; text-indent: 0px; text-transform: none; widows: 2; word-spacing: 0px; -webkit-text-stroke-width: 0px; white-space: normal; text-decoration-thickness: initial; text-decoration-style: initial; text-decoration-color: initial; float: none; display: inline !important;&quot;&gt;&lt;font style=&quot;font-size: 20px;&quot; face=&quot;Times New Roman&quot;&gt;id_valid&lt;/font&gt;&lt;/span&gt;" style="text;whiteSpace=wrap;html=1;" vertex="1" parent="1">
          <mxGeometry x="780.25" y="400" width="70" height="38" as="geometry" />
        </mxCell>
        <mxCell id="jE9lUmCRKCD1lappJOkZ-54" value="" style="endArrow=classic;html=1;rounded=0;" edge="1" parent="1">
          <mxGeometry width="50" height="50" relative="1" as="geometry">
            <mxPoint x="770.25" y="440" as="sourcePoint" />
            <mxPoint x="870.25" y="438" as="targetPoint" />
          </mxGeometry>
        </mxCell>
        <mxCell id="jE9lUmCRKCD1lappJOkZ-55" value="&lt;span style=&quot;color: rgb(0, 0, 0); font-style: normal; font-variant-ligatures: normal; font-variant-caps: normal; font-weight: 400; letter-spacing: normal; orphans: 2; text-align: center; text-indent: 0px; text-transform: none; widows: 2; word-spacing: 0px; -webkit-text-stroke-width: 0px; white-space: normal; text-decoration-thickness: initial; text-decoration-style: initial; text-decoration-color: initial; float: none; display: inline !important;&quot;&gt;&lt;font style=&quot;font-size: 20px;&quot; face=&quot;Times New Roman&quot;&gt;irq&lt;/font&gt;&lt;/span&gt;" style="text;whiteSpace=wrap;html=1;" vertex="1" parent="1">
          <mxGeometry x="1071.5" y="305.5" width="50" height="38" as="geometry" />
        </mxCell>
        <mxCell id="jE9lUmCRKCD1lappJOkZ-56" value="&lt;span style=&quot;color: rgb(0, 0, 0); font-style: normal; font-variant-ligatures: normal; font-variant-caps: normal; font-weight: 400; letter-spacing: normal; orphans: 2; text-align: center; text-indent: 0px; text-transform: none; widows: 2; word-spacing: 0px; -webkit-text-stroke-width: 0px; white-space: normal; text-decoration-thickness: initial; text-decoration-style: initial; text-decoration-color: initial; float: none; display: inline !important;&quot;&gt;&lt;font style=&quot;font-size: 20px;&quot; face=&quot;Times New Roman&quot;&gt;irq_no&lt;/font&gt;&lt;/span&gt;" style="text;whiteSpace=wrap;html=1;" vertex="1" parent="1">
          <mxGeometry x="1071.5" y="343.5" width="60" height="38" as="geometry" />
        </mxCell>
        <mxCell id="jE9lUmCRKCD1lappJOkZ-57" value="&lt;span style=&quot;color: rgb(0, 0, 0); font-style: normal; font-variant-ligatures: normal; font-variant-caps: normal; font-weight: 400; letter-spacing: normal; orphans: 2; text-align: center; text-indent: 0px; text-transform: none; widows: 2; word-spacing: 0px; -webkit-text-stroke-width: 0px; white-space: normal; text-decoration-thickness: initial; text-decoration-style: initial; text-decoration-color: initial; float: none; display: inline !important;&quot;&gt;&lt;font style=&quot;font-size: 20px;&quot; face=&quot;Times New Roman&quot;&gt;aluop&lt;/font&gt;&lt;/span&gt;" style="text;whiteSpace=wrap;html=1;" vertex="1" parent="1">
          <mxGeometry x="1071.5" y="381.5" width="60" height="34" as="geometry" />
        </mxCell>
        <mxCell id="jE9lUmCRKCD1lappJOkZ-58" value="&lt;span style=&quot;color: rgb(0, 0, 0); font-style: normal; font-variant-ligatures: normal; font-variant-caps: normal; font-weight: 400; letter-spacing: normal; orphans: 2; text-align: center; text-indent: 0px; text-transform: none; widows: 2; word-spacing: 0px; -webkit-text-stroke-width: 0px; white-space: normal; text-decoration-thickness: initial; text-decoration-style: initial; text-decoration-color: initial; float: none; display: inline !important;&quot;&gt;&lt;font style=&quot;font-size: 20px;&quot; face=&quot;Times New Roman&quot;&gt;Gpr_Write&lt;/font&gt;&lt;/span&gt;" style="text;whiteSpace=wrap;html=1;" vertex="1" parent="1">
          <mxGeometry x="1071.5" y="413.5" width="90" height="36.5" as="geometry" />
        </mxCell>
        <mxCell id="jE9lUmCRKCD1lappJOkZ-59" value="&lt;span style=&quot;color: rgb(0, 0, 0); font-style: normal; font-variant-ligatures: normal; font-variant-caps: normal; font-weight: 400; letter-spacing: normal; orphans: 2; text-align: center; text-indent: 0px; text-transform: none; widows: 2; word-spacing: 0px; -webkit-text-stroke-width: 0px; white-space: normal; text-decoration-thickness: initial; text-decoration-style: initial; text-decoration-color: initial; float: none; display: inline !important;&quot;&gt;&lt;font style=&quot;font-size: 20px;&quot; face=&quot;Times New Roman&quot;&gt;Gpr_Write_RD&lt;/font&gt;&lt;/span&gt;" style="text;whiteSpace=wrap;html=1;" vertex="1" parent="1">
          <mxGeometry x="1071.5" y="449" width="130" height="41" as="geometry" />
        </mxCell>
        <mxCell id="jE9lUmCRKCD1lappJOkZ-61" value="&lt;span style=&quot;color: rgb(0, 0, 0); font-style: normal; font-variant-ligatures: normal; font-variant-caps: normal; font-weight: 400; letter-spacing: normal; orphans: 2; text-align: center; text-indent: 0px; text-transform: none; widows: 2; word-spacing: 0px; -webkit-text-stroke-width: 0px; white-space: normal; text-decoration-thickness: initial; text-decoration-style: initial; text-decoration-color: initial; float: none; display: inline !important;&quot;&gt;&lt;font style=&quot;font-size: 20px;&quot; face=&quot;Times New Roman&quot;&gt;Csr_Write&lt;/font&gt;&lt;/span&gt;" style="text;whiteSpace=wrap;html=1;" vertex="1" parent="1">
          <mxGeometry x="1071.5" y="485.5" width="90" height="34.5" as="geometry" />
        </mxCell>
        <mxCell id="jE9lUmCRKCD1lappJOkZ-62" value="&lt;span style=&quot;color: rgb(0, 0, 0); font-style: normal; font-variant-ligatures: normal; font-variant-caps: normal; font-weight: 400; letter-spacing: normal; orphans: 2; text-align: center; text-indent: 0px; text-transform: none; widows: 2; word-spacing: 0px; -webkit-text-stroke-width: 0px; white-space: normal; text-decoration-thickness: initial; text-decoration-style: initial; text-decoration-color: initial; float: none; display: inline !important;&quot;&gt;&lt;font style=&quot;font-size: 20px;&quot; face=&quot;Times New Roman&quot;&gt;Csr_Write_RD&lt;/font&gt;&lt;/span&gt;" style="text;whiteSpace=wrap;html=1;" vertex="1" parent="1">
          <mxGeometry x="1071.5" y="517.5" width="130" height="38" as="geometry" />
        </mxCell>
        <mxCell id="jE9lUmCRKCD1lappJOkZ-63" value="&lt;span style=&quot;color: rgb(0, 0, 0); font-style: normal; font-variant-ligatures: normal; font-variant-caps: normal; font-weight: 400; letter-spacing: normal; orphans: 2; text-align: center; text-indent: 0px; text-transform: none; widows: 2; word-spacing: 0px; -webkit-text-stroke-width: 0px; white-space: normal; text-decoration-thickness: initial; text-decoration-style: initial; text-decoration-color: initial; float: none; display: inline !important;&quot;&gt;&lt;font style=&quot;font-size: 20px;&quot; face=&quot;Times New Roman&quot;&gt;Jump&lt;/font&gt;&lt;/span&gt;" style="text;whiteSpace=wrap;html=1;" vertex="1" parent="1">
          <mxGeometry x="1071.5" y="773.5" width="50" height="32" as="geometry" />
        </mxCell>
        <mxCell id="jE9lUmCRKCD1lappJOkZ-74" style="edgeStyle=orthogonalEdgeStyle;rounded=0;orthogonalLoop=1;jettySize=auto;html=1;exitX=1;exitY=0.5;exitDx=0;exitDy=0;entryX=0;entryY=0.5;entryDx=0;entryDy=0;" edge="1" parent="1" source="jE9lUmCRKCD1lappJOkZ-65">
          <mxGeometry relative="1" as="geometry">
            <mxPoint x="1264" y="905.5" as="targetPoint" />
          </mxGeometry>
        </mxCell>
        <mxCell id="jE9lUmCRKCD1lappJOkZ-65" value="&lt;span style=&quot;color: rgb(0, 0, 0); font-style: normal; font-variant-ligatures: normal; font-variant-caps: normal; font-weight: 400; letter-spacing: normal; orphans: 2; text-align: center; text-indent: 0px; text-transform: none; widows: 2; word-spacing: 0px; -webkit-text-stroke-width: 0px; white-space: normal; text-decoration-thickness: initial; text-decoration-style: initial; text-decoration-color: initial; float: none; display: inline !important;&quot;&gt;&lt;font style=&quot;font-size: 20px;&quot; face=&quot;Times New Roman&quot;&gt;Imm_Type&lt;/font&gt;&lt;/span&gt;" style="text;whiteSpace=wrap;html=1;" vertex="1" parent="1">
          <mxGeometry x="1070" y="886.5" width="90" height="38" as="geometry" />
        </mxCell>
        <mxCell id="jE9lUmCRKCD1lappJOkZ-66" value="&lt;span style=&quot;color: rgb(0, 0, 0); font-style: normal; font-variant-ligatures: normal; font-variant-caps: normal; font-weight: 400; letter-spacing: normal; orphans: 2; text-align: center; text-indent: 0px; text-transform: none; widows: 2; word-spacing: 0px; -webkit-text-stroke-width: 0px; white-space: normal; text-decoration-thickness: initial; text-decoration-style: initial; text-decoration-color: initial; float: none; display: inline !important;&quot;&gt;&lt;font style=&quot;font-size: 20px;&quot; face=&quot;Times New Roman&quot;&gt;AluSrcA&lt;/font&gt;&lt;/span&gt;" style="text;whiteSpace=wrap;html=1;" vertex="1" parent="1">
          <mxGeometry x="1071.5" y="547.5" width="90" height="38" as="geometry" />
        </mxCell>
        <mxCell id="jE9lUmCRKCD1lappJOkZ-67" value="&lt;span style=&quot;color: rgb(0, 0, 0); font-family: &amp;quot;Times New Roman&amp;quot;; font-size: 20px; font-style: normal; font-variant-ligatures: normal; font-variant-caps: normal; font-weight: 400; letter-spacing: normal; orphans: 2; text-align: center; text-indent: 0px; text-transform: none; widows: 2; word-spacing: 0px; -webkit-text-stroke-width: 0px; white-space: normal; text-decoration-thickness: initial; text-decoration-style: initial; text-decoration-color: initial; float: none; display: inline !important;&quot;&gt;AluSrcB&lt;/span&gt;" style="text;whiteSpace=wrap;html=1;" vertex="1" parent="1">
          <mxGeometry x="1071.5" y="585.5" width="81.5" height="31" as="geometry" />
        </mxCell>
        <mxCell id="jE9lUmCRKCD1lappJOkZ-68" value="&lt;span style=&quot;color: rgb(0, 0, 0); font-family: &amp;quot;Times New Roman&amp;quot;; font-size: 20px; font-style: normal; font-variant-ligatures: normal; font-variant-caps: normal; font-weight: 400; letter-spacing: normal; orphans: 2; text-align: center; text-indent: 0px; text-transform: none; widows: 2; word-spacing: 0px; -webkit-text-stroke-width: 0px; white-space: normal; text-decoration-thickness: initial; text-decoration-style: initial; text-decoration-color: initial; float: none; display: inline !important;&quot;&gt;Mem_Read&lt;/span&gt;" style="text;whiteSpace=wrap;html=1;" vertex="1" parent="1">
          <mxGeometry x="1071.5" y="618.5" width="100" height="35" as="geometry" />
        </mxCell>
        <mxCell id="jE9lUmCRKCD1lappJOkZ-69" value="&lt;span style=&quot;color: rgb(0, 0, 0); font-family: &amp;quot;Times New Roman&amp;quot;; font-size: 20px; font-style: normal; font-variant-ligatures: normal; font-variant-caps: normal; font-weight: 400; letter-spacing: normal; orphans: 2; text-align: center; text-indent: 0px; text-transform: none; widows: 2; word-spacing: 0px; -webkit-text-stroke-width: 0px; white-space: normal; text-decoration-thickness: initial; text-decoration-style: initial; text-decoration-color: initial; float: none; display: inline !important;&quot;&gt;Mem_RMask&lt;/span&gt;" style="text;whiteSpace=wrap;html=1;" vertex="1" parent="1">
          <mxGeometry x="1071.5" y="653.5" width="120" height="40" as="geometry" />
        </mxCell>
        <mxCell id="jE9lUmCRKCD1lappJOkZ-71" value="&lt;span style=&quot;color: rgb(0, 0, 0); font-family: &amp;quot;Times New Roman&amp;quot;; font-size: 20px; font-style: normal; font-variant-ligatures: normal; font-variant-caps: normal; font-weight: 400; letter-spacing: normal; orphans: 2; text-align: center; text-indent: 0px; text-transform: none; widows: 2; word-spacing: 0px; -webkit-text-stroke-width: 0px; white-space: normal; text-decoration-thickness: initial; text-decoration-style: initial; text-decoration-color: initial; float: none; display: inline !important;&quot;&gt;Mem_Write&lt;/span&gt;" style="text;whiteSpace=wrap;html=1;" vertex="1" parent="1">
          <mxGeometry x="1071.5" y="693.5" width="100" height="40" as="geometry" />
        </mxCell>
        <mxCell id="jE9lUmCRKCD1lappJOkZ-72" value="&lt;span style=&quot;color: rgb(0, 0, 0); font-family: &amp;quot;Times New Roman&amp;quot;; font-size: 20px; font-style: normal; font-variant-ligatures: normal; font-variant-caps: normal; font-weight: 400; letter-spacing: normal; orphans: 2; text-align: center; text-indent: 0px; text-transform: none; widows: 2; word-spacing: 0px; -webkit-text-stroke-width: 0px; white-space: normal; text-decoration-thickness: initial; text-decoration-style: initial; text-decoration-color: initial; float: none; display: inline !important;&quot;&gt;Mem_WMask&lt;/span&gt;" style="text;whiteSpace=wrap;html=1;" vertex="1" parent="1">
          <mxGeometry x="1070" y="733.5" width="130" height="40" as="geometry" />
        </mxCell>
        <mxCell id="jE9lUmCRKCD1lappJOkZ-73" value="&lt;font style=&quot;font-size: 24px;&quot; face=&quot;Times New Roman&quot;&gt;sext_imm&lt;/font&gt;" style="rounded=0;whiteSpace=wrap;html=1;" vertex="1" parent="1">
          <mxGeometry x="1202.5" y="880" width="120" height="40" as="geometry" />
        </mxCell>
        <mxCell id="jE9lUmCRKCD1lappJOkZ-90" style="edgeStyle=orthogonalEdgeStyle;rounded=0;orthogonalLoop=1;jettySize=auto;html=1;exitX=1;exitY=0.25;exitDx=0;exitDy=0;entryX=0;entryY=0.5;entryDx=0;entryDy=0;" edge="1" parent="1" source="jE9lUmCRKCD1lappJOkZ-76" target="jE9lUmCRKCD1lappJOkZ-87">
          <mxGeometry relative="1" as="geometry" />
        </mxCell>
        <mxCell id="jE9lUmCRKCD1lappJOkZ-91" style="edgeStyle=orthogonalEdgeStyle;rounded=0;orthogonalLoop=1;jettySize=auto;html=1;exitX=1;exitY=0.75;exitDx=0;exitDy=0;" edge="1" parent="1" source="jE9lUmCRKCD1lappJOkZ-76" target="jE9lUmCRKCD1lappJOkZ-88">
          <mxGeometry relative="1" as="geometry" />
        </mxCell>
        <mxCell id="jE9lUmCRKCD1lappJOkZ-76" value="&lt;font style=&quot;font-size: 24px;&quot; face=&quot;Times New Roman&quot;&gt;GPR&lt;/font&gt;" style="rounded=0;whiteSpace=wrap;html=1;" vertex="1" parent="1">
          <mxGeometry x="885" y="1030" width="150" height="110" as="geometry" />
        </mxCell>
        <mxCell id="jE9lUmCRKCD1lappJOkZ-77" value="&lt;font style=&quot;font-size: 24px;&quot; face=&quot;Times New Roman&quot;&gt;CSR&lt;/font&gt;" style="rounded=0;whiteSpace=wrap;html=1;" vertex="1" parent="1">
          <mxGeometry x="885" y="1180" width="155" height="200" as="geometry" />
        </mxCell>
        <mxCell id="jE9lUmCRKCD1lappJOkZ-80" value="&lt;span style=&quot;color: rgb(0, 0, 0); font-style: normal; font-variant-ligatures: normal; font-variant-caps: normal; font-weight: 400; letter-spacing: normal; orphans: 2; text-align: center; text-indent: 0px; text-transform: none; widows: 2; word-spacing: 0px; -webkit-text-stroke-width: 0px; white-space: normal; text-decoration-thickness: initial; text-decoration-style: initial; text-decoration-color: initial; float: none; display: inline !important;&quot;&gt;&lt;font style=&quot;font-size: 20px;&quot; face=&quot;Times New Roman&quot;&gt;Gpr_Write_W&lt;/font&gt;&lt;/span&gt;" style="text;whiteSpace=wrap;html=1;" vertex="1" parent="1">
          <mxGeometry x="764" y="1040" width="113" height="38" as="geometry" />
        </mxCell>
        <mxCell id="jE9lUmCRKCD1lappJOkZ-81" value="" style="endArrow=classic;html=1;rounded=0;entryX=0.004;entryY=0.44;entryDx=0;entryDy=0;entryPerimeter=0;" edge="1" parent="1" target="jE9lUmCRKCD1lappJOkZ-76">
          <mxGeometry width="50" height="50" relative="1" as="geometry">
            <mxPoint x="779" y="1080" as="sourcePoint" />
            <mxPoint x="880" y="1079" as="targetPoint" />
          </mxGeometry>
        </mxCell>
        <mxCell id="jE9lUmCRKCD1lappJOkZ-84" value="&lt;span style=&quot;color: rgb(0, 0, 0); font-style: normal; font-variant-ligatures: normal; font-variant-caps: normal; font-weight: 400; letter-spacing: normal; orphans: 2; text-align: center; text-indent: 0px; text-transform: none; widows: 2; word-spacing: 0px; -webkit-text-stroke-width: 0px; white-space: normal; text-decoration-thickness: initial; text-decoration-style: initial; text-decoration-color: initial; float: none; display: inline !important;&quot;&gt;&lt;font style=&quot;font-size: 20px;&quot; face=&quot;Times New Roman&quot;&gt;wdata_gpr_W&lt;/font&gt;&lt;/span&gt;" style="text;whiteSpace=wrap;html=1;" vertex="1" parent="1">
          <mxGeometry x="764" y="1078" width="113" height="38" as="geometry" />
        </mxCell>
        <mxCell id="jE9lUmCRKCD1lappJOkZ-85" value="" style="endArrow=classic;html=1;rounded=0;entryX=0;entryY=0.801;entryDx=0;entryDy=0;entryPerimeter=0;" edge="1" parent="1" target="jE9lUmCRKCD1lappJOkZ-76">
          <mxGeometry width="50" height="50" relative="1" as="geometry">
            <mxPoint x="779" y="1118" as="sourcePoint" />
            <mxPoint x="886" y="1116" as="targetPoint" />
          </mxGeometry>
        </mxCell>
        <mxCell id="jE9lUmCRKCD1lappJOkZ-87" value="&lt;font style=&quot;font-size: 24px;&quot; face=&quot;Times New Roman&quot;&gt;Reg&lt;/font&gt;" style="rounded=0;whiteSpace=wrap;html=1;" vertex="1" parent="1">
          <mxGeometry x="1202.5" y="960" width="120" height="40" as="geometry" />
        </mxCell>
        <mxCell id="jE9lUmCRKCD1lappJOkZ-88" value="&lt;font face=&quot;Times New Roman&quot;&gt;&lt;span style=&quot;font-size: 24px;&quot;&gt;Reg&lt;/span&gt;&lt;/font&gt;" style="rounded=0;whiteSpace=wrap;html=1;" vertex="1" parent="1">
          <mxGeometry x="1200" y="1140" width="120" height="40" as="geometry" />
        </mxCell>
        <mxCell id="jE9lUmCRKCD1lappJOkZ-93" value="&lt;span style=&quot;color: rgb(0, 0, 0); font-style: normal; font-variant-ligatures: normal; font-variant-caps: normal; font-weight: 400; letter-spacing: normal; orphans: 2; text-align: center; text-indent: 0px; text-transform: none; widows: 2; word-spacing: 0px; -webkit-text-stroke-width: 0px; white-space: normal; text-decoration-thickness: initial; text-decoration-style: initial; text-decoration-color: initial; float: none; display: inline !important;&quot;&gt;&lt;font style=&quot;font-size: 20px;&quot; face=&quot;Times New Roman&quot;&gt;irq_W &amp;amp; PCW&lt;/font&gt;&lt;/span&gt;" style="text;whiteSpace=wrap;html=1;" vertex="1" parent="1">
          <mxGeometry x="759" y="1200" width="126" height="38" as="geometry" />
        </mxCell>
        <mxCell id="jE9lUmCRKCD1lappJOkZ-94" value="" style="endArrow=classic;html=1;rounded=0;" edge="1" parent="1">
          <mxGeometry width="50" height="50" relative="1" as="geometry">
            <mxPoint x="769" y="1240" as="sourcePoint" />
            <mxPoint x="885" y="1238" as="targetPoint" />
          </mxGeometry>
        </mxCell>
        <mxCell id="jE9lUmCRKCD1lappJOkZ-95" value="&lt;span style=&quot;color: rgb(0, 0, 0); font-style: normal; font-variant-ligatures: normal; font-variant-caps: normal; font-weight: 400; letter-spacing: normal; orphans: 2; text-align: center; text-indent: 0px; text-transform: none; widows: 2; word-spacing: 0px; -webkit-text-stroke-width: 0px; white-space: normal; text-decoration-thickness: initial; text-decoration-style: initial; text-decoration-color: initial; float: none; display: inline !important;&quot;&gt;&lt;font style=&quot;font-size: 20px;&quot; face=&quot;Times New Roman&quot;&gt;irq_no_W&lt;/font&gt;&lt;/span&gt;" style="text;whiteSpace=wrap;html=1;" vertex="1" parent="1">
          <mxGeometry x="780" y="1241" width="86" height="38" as="geometry" />
        </mxCell>
        <mxCell id="jE9lUmCRKCD1lappJOkZ-96" value="" style="endArrow=classic;html=1;rounded=0;entryX=0.005;entryY=0.491;entryDx=0;entryDy=0;entryPerimeter=0;" edge="1" parent="1" target="jE9lUmCRKCD1lappJOkZ-77">
          <mxGeometry width="50" height="50" relative="1" as="geometry">
            <mxPoint x="769" y="1278" as="sourcePoint" />
            <mxPoint x="880" y="1278" as="targetPoint" />
          </mxGeometry>
        </mxCell>
        <mxCell id="jE9lUmCRKCD1lappJOkZ-98" value="" style="endArrow=classic;html=1;rounded=0;edgeStyle=orthogonalEdgeStyle;entryX=0.003;entryY=0.077;entryDx=0;entryDy=0;entryPerimeter=0;" edge="1" parent="1" target="jE9lUmCRKCD1lappJOkZ-77">
          <mxGeometry width="50" height="50" relative="1" as="geometry">
            <mxPoint x="570" y="1030" as="sourcePoint" />
            <mxPoint x="890" y="1180" as="targetPoint" />
            <Array as="points">
              <mxPoint x="570" y="1190" />
            </Array>
          </mxGeometry>
        </mxCell>
        <mxCell id="jE9lUmCRKCD1lappJOkZ-99" value="&lt;span style=&quot;color: rgb(0, 0, 0); font-style: normal; font-variant-ligatures: normal; font-variant-caps: normal; font-weight: 400; letter-spacing: normal; orphans: 2; text-align: center; text-indent: 0px; text-transform: none; widows: 2; word-spacing: 0px; -webkit-text-stroke-width: 0px; white-space: normal; text-decoration-thickness: initial; text-decoration-style: initial; text-decoration-color: initial; float: none; display: inline !important;&quot;&gt;&lt;font style=&quot;font-size: 20px;&quot; face=&quot;Times New Roman&quot;&gt;Csr_Write_W&lt;/font&gt;&lt;/span&gt;" style="text;whiteSpace=wrap;html=1;" vertex="1" parent="1">
          <mxGeometry x="764" y="1290" width="113" height="38" as="geometry" />
        </mxCell>
        <mxCell id="jE9lUmCRKCD1lappJOkZ-100" value="" style="endArrow=classic;html=1;rounded=0;entryX=0;entryY=0.75;entryDx=0;entryDy=0;" edge="1" parent="1" target="jE9lUmCRKCD1lappJOkZ-77">
          <mxGeometry width="50" height="50" relative="1" as="geometry">
            <mxPoint x="779" y="1330" as="sourcePoint" />
            <mxPoint x="886" y="1328" as="targetPoint" />
          </mxGeometry>
        </mxCell>
        <mxCell id="jE9lUmCRKCD1lappJOkZ-101" value="&lt;span style=&quot;color: rgb(0, 0, 0); font-style: normal; font-variant-ligatures: normal; font-variant-caps: normal; font-weight: 400; letter-spacing: normal; orphans: 2; text-align: center; text-indent: 0px; text-transform: none; widows: 2; word-spacing: 0px; -webkit-text-stroke-width: 0px; white-space: normal; text-decoration-thickness: initial; text-decoration-style: initial; text-decoration-color: initial; float: none; display: inline !important;&quot;&gt;&lt;font style=&quot;font-size: 20px;&quot; face=&quot;Times New Roman&quot;&gt;wdata_csr_W&lt;/font&gt;&lt;/span&gt;" style="text;whiteSpace=wrap;html=1;" vertex="1" parent="1">
          <mxGeometry x="764" y="1328" width="113" height="38" as="geometry" />
        </mxCell>
        <mxCell id="jE9lUmCRKCD1lappJOkZ-102" value="" style="endArrow=classic;html=1;rounded=0;entryX=0.007;entryY=0.938;entryDx=0;entryDy=0;entryPerimeter=0;" edge="1" parent="1" target="jE9lUmCRKCD1lappJOkZ-77">
          <mxGeometry width="50" height="50" relative="1" as="geometry">
            <mxPoint x="779" y="1368" as="sourcePoint" />
            <mxPoint x="886" y="1366" as="targetPoint" />
          </mxGeometry>
        </mxCell>
        <mxCell id="jE9lUmCRKCD1lappJOkZ-103" value="&lt;span style=&quot;color: rgb(0, 0, 0); font-style: normal; font-variant-ligatures: normal; font-variant-caps: normal; font-weight: 400; letter-spacing: normal; orphans: 2; text-align: center; text-indent: 0px; text-transform: none; widows: 2; word-spacing: 0px; -webkit-text-stroke-width: 0px; white-space: normal; text-decoration-thickness: initial; text-decoration-style: initial; text-decoration-color: initial; float: none; display: inline !important;&quot;&gt;&lt;font style=&quot;font-size: 20px;&quot; face=&quot;Times New Roman&quot;&gt;rdata_csr&lt;/font&gt;&lt;/span&gt;" style="text;whiteSpace=wrap;html=1;" vertex="1" parent="1">
          <mxGeometry x="1100" y="1200" width="80" height="38" as="geometry" />
        </mxCell>
        <mxCell id="jE9lUmCRKCD1lappJOkZ-104" value="&lt;span style=&quot;color: rgb(0, 0, 0); font-style: normal; font-variant-ligatures: normal; font-variant-caps: normal; font-weight: 400; letter-spacing: normal; orphans: 2; text-align: center; text-indent: 0px; text-transform: none; widows: 2; word-spacing: 0px; -webkit-text-stroke-width: 0px; white-space: normal; text-decoration-thickness: initial; text-decoration-style: initial; text-decoration-color: initial; float: none; display: inline !important;&quot;&gt;&lt;font style=&quot;font-size: 20px;&quot; face=&quot;Times New Roman&quot;&gt;mtvec&lt;/font&gt;&lt;/span&gt;" style="text;whiteSpace=wrap;html=1;" vertex="1" parent="1">
          <mxGeometry x="1100" y="1256" width="60" height="38" as="geometry" />
        </mxCell>
        <mxCell id="jE9lUmCRKCD1lappJOkZ-105" value="&lt;span style=&quot;color: rgb(0, 0, 0); font-style: normal; font-variant-ligatures: normal; font-variant-caps: normal; font-weight: 400; letter-spacing: normal; orphans: 2; text-align: center; text-indent: 0px; text-transform: none; widows: 2; word-spacing: 0px; -webkit-text-stroke-width: 0px; white-space: normal; text-decoration-thickness: initial; text-decoration-style: initial; text-decoration-color: initial; float: none; display: inline !important;&quot;&gt;&lt;font style=&quot;font-size: 20px;&quot; face=&quot;Times New Roman&quot;&gt;mepc&lt;/font&gt;&lt;/span&gt;" style="text;whiteSpace=wrap;html=1;" vertex="1" parent="1">
          <mxGeometry x="1100" y="1320" width="60" height="40" as="geometry" />
        </mxCell>
        <mxCell id="jE9lUmCRKCD1lappJOkZ-107" value="&lt;span style=&quot;color: rgb(0, 0, 0); font-style: normal; font-variant-ligatures: normal; font-variant-caps: normal; font-weight: 400; letter-spacing: normal; orphans: 2; text-align: center; text-indent: 0px; text-transform: none; widows: 2; word-spacing: 0px; -webkit-text-stroke-width: 0px; white-space: normal; text-decoration-thickness: initial; text-decoration-style: initial; text-decoration-color: initial; float: none; display: inline !important;&quot;&gt;&lt;font face=&quot;Times New Roman&quot; style=&quot;font-size: 20px;&quot;&gt;is_fence_i&lt;/font&gt;&lt;/span&gt;" style="text;whiteSpace=wrap;html=1;" vertex="1" parent="1">
          <mxGeometry x="1070" y="845.5" width="100" height="40" as="geometry" />
        </mxCell>
        <mxCell id="jE9lUmCRKCD1lappJOkZ-109" value="" style="rounded=0;whiteSpace=wrap;html=1;" vertex="1" parent="1">
          <mxGeometry x="1611" y="220" width="849" height="1220" as="geometry" />
        </mxCell>
        <mxCell id="jE9lUmCRKCD1lappJOkZ-114" value="&lt;font style=&quot;font-size: 24px;&quot; face=&quot;Times New Roman&quot;&gt;EXEU&lt;/font&gt;" style="text;html=1;align=center;verticalAlign=middle;whiteSpace=wrap;rounded=0;" vertex="1" parent="1">
          <mxGeometry x="2000" y="230" width="60" height="30" as="geometry" />
        </mxCell>
        <mxCell id="jE9lUmCRKCD1lappJOkZ-115" value="&lt;font style=&quot;font-size: 24px;&quot; face=&quot;Times New Roman&quot;&gt;id_valid&lt;/font&gt;" style="text;html=1;align=center;verticalAlign=middle;whiteSpace=wrap;rounded=0;" vertex="1" parent="1">
          <mxGeometry x="1429.05" y="350" width="60" height="30" as="geometry" />
        </mxCell>
        <mxCell id="jE9lUmCRKCD1lappJOkZ-116" value="" style="endArrow=classic;html=1;rounded=0;" edge="1" parent="1">
          <mxGeometry width="50" height="50" relative="1" as="geometry">
            <mxPoint x="1370" y="380" as="sourcePoint" />
            <mxPoint x="1610" y="381" as="targetPoint" />
            <Array as="points">
              <mxPoint x="1470" y="381" />
            </Array>
          </mxGeometry>
        </mxCell>
        <mxCell id="jE9lUmCRKCD1lappJOkZ-117" value="&lt;font style=&quot;font-size: 24px;&quot; face=&quot;Times New Roman&quot;&gt;exe_ready&lt;/font&gt;" style="text;html=1;align=center;verticalAlign=middle;whiteSpace=wrap;rounded=0;" vertex="1" parent="1">
          <mxGeometry x="1429.05" y="413.5" width="60" height="30" as="geometry" />
        </mxCell>
        <mxCell id="jE9lUmCRKCD1lappJOkZ-118" value="" style="endArrow=none;html=1;rounded=0;startArrow=classicThin;startFill=1;endFill=0;entryX=0;entryY=0.184;entryDx=0;entryDy=0;entryPerimeter=0;" edge="1" parent="1" target="jE9lUmCRKCD1lappJOkZ-109">
          <mxGeometry width="50" height="50" relative="1" as="geometry">
            <mxPoint x="1370" y="443.5" as="sourcePoint" />
            <mxPoint x="1570" y="444.5" as="targetPoint" />
            <Array as="points">
              <mxPoint x="1470" y="444.5" />
            </Array>
          </mxGeometry>
        </mxCell>
        <mxCell id="jE9lUmCRKCD1lappJOkZ-121" value="&lt;font face=&quot;Times New Roman&quot;&gt;&lt;span style=&quot;font-size: 24px;&quot;&gt;icache_flush_done&lt;/span&gt;&lt;/font&gt;" style="text;html=1;align=center;verticalAlign=middle;whiteSpace=wrap;rounded=0;" vertex="1" parent="1">
          <mxGeometry x="1480" y="1366" width="60" height="30" as="geometry" />
        </mxCell>
        <mxCell id="jE9lUmCRKCD1lappJOkZ-125" value="&lt;font face=&quot;Times New Roman&quot;&gt;&lt;span style=&quot;font-size: 24px;&quot;&gt;sext_imm_E&lt;/span&gt;&lt;/font&gt;" style="text;html=1;align=center;verticalAlign=middle;whiteSpace=wrap;rounded=0;" vertex="1" parent="1">
          <mxGeometry x="1460" y="870" width="60" height="30" as="geometry" />
        </mxCell>
        <mxCell id="jE9lUmCRKCD1lappJOkZ-126" value="" style="endArrow=classic;html=1;rounded=0;exitX=1;exitY=0.5;exitDx=0;exitDy=0;entryX=0.265;entryY=1.041;entryDx=0;entryDy=0;entryPerimeter=0;" edge="1" parent="1" target="jE9lUmCRKCD1lappJOkZ-129">
          <mxGeometry width="50" height="50" relative="1" as="geometry">
            <mxPoint x="1322.5" y="902.25" as="sourcePoint" />
            <mxPoint x="1610" y="930" as="targetPoint" />
            <Array as="points">
              <mxPoint x="1470" y="902.25" />
            </Array>
          </mxGeometry>
        </mxCell>
        <mxCell id="jE9lUmCRKCD1lappJOkZ-127" value="&lt;font style=&quot;font-size: 24px;&quot; face=&quot;Times New Roman&quot;&gt;PC_E&lt;/font&gt;" style="text;html=1;align=center;verticalAlign=middle;whiteSpace=wrap;rounded=0;" vertex="1" parent="1">
          <mxGeometry x="1430.05" y="1210" width="60" height="30" as="geometry" />
        </mxCell>
        <mxCell id="jE9lUmCRKCD1lappJOkZ-131" style="edgeStyle=orthogonalEdgeStyle;rounded=0;orthogonalLoop=1;jettySize=auto;html=1;exitX=1;exitY=0.5;exitDx=0;exitDy=0;entryX=0.75;entryY=1;entryDx=0;entryDy=0;" edge="1" parent="1" source="jE9lUmCRKCD1lappJOkZ-87" target="jE9lUmCRKCD1lappJOkZ-129">
          <mxGeometry relative="1" as="geometry" />
        </mxCell>
        <mxCell id="jE9lUmCRKCD1lappJOkZ-128" value="" style="endArrow=classic;html=1;rounded=0;entryX=0.706;entryY=0.995;entryDx=0;entryDy=0;entryPerimeter=0;" edge="1" parent="1" target="jE9lUmCRKCD1lappJOkZ-134">
          <mxGeometry width="50" height="50" relative="1" as="geometry">
            <mxPoint x="1371" y="1240" as="sourcePoint" />
            <mxPoint x="1611" y="1241" as="targetPoint" />
            <Array as="points">
              <mxPoint x="1471" y="1241" />
            </Array>
          </mxGeometry>
        </mxCell>
        <mxCell id="jE9lUmCRKCD1lappJOkZ-129" value="&lt;font style=&quot;font-size: 24px;&quot; face=&quot;Times New Roman&quot;&gt;MUX&lt;/font&gt;" style="shape=trapezoid;perimeter=trapezoidPerimeter;whiteSpace=wrap;html=1;fixedSize=1;rotation=90;" vertex="1" parent="1">
          <mxGeometry x="1650" y="910" width="160" height="60" as="geometry" />
        </mxCell>
        <mxCell id="jE9lUmCRKCD1lappJOkZ-130" value="" style="endArrow=classic;html=1;rounded=0;edgeStyle=orthogonalEdgeStyle;entryX=0.001;entryY=0.047;entryDx=0;entryDy=0;entryPerimeter=0;" edge="1" parent="1" target="jE9lUmCRKCD1lappJOkZ-76">
          <mxGeometry width="50" height="50" relative="1" as="geometry">
            <mxPoint x="570" y="520" as="sourcePoint" />
            <mxPoint x="620" y="470" as="targetPoint" />
            <Array as="points">
              <mxPoint x="570" y="1035" />
            </Array>
          </mxGeometry>
        </mxCell>
        <mxCell id="jE9lUmCRKCD1lappJOkZ-132" value="&lt;font face=&quot;Times New Roman&quot;&gt;&lt;span style=&quot;font-size: 24px;&quot;&gt;rs2_data_E&lt;/span&gt;&lt;/font&gt;" style="text;html=1;align=center;verticalAlign=middle;whiteSpace=wrap;rounded=0;" vertex="1" parent="1">
          <mxGeometry x="1460" y="950" width="60" height="30" as="geometry" />
        </mxCell>
        <mxCell id="jE9lUmCRKCD1lappJOkZ-134" value="&lt;font style=&quot;font-size: 24px;&quot; face=&quot;Times New Roman&quot;&gt;MUX&lt;/font&gt;" style="shape=trapezoid;perimeter=trapezoidPerimeter;whiteSpace=wrap;html=1;fixedSize=1;rotation=90;" vertex="1" parent="1">
          <mxGeometry x="1650" y="1178" width="160" height="60" as="geometry" />
        </mxCell>
        <mxCell id="jE9lUmCRKCD1lappJOkZ-135" style="edgeStyle=orthogonalEdgeStyle;rounded=0;orthogonalLoop=1;jettySize=auto;html=1;exitX=1;exitY=0.5;exitDx=0;exitDy=0;entryX=0.198;entryY=1.014;entryDx=0;entryDy=0;entryPerimeter=0;" edge="1" parent="1" target="jE9lUmCRKCD1lappJOkZ-134">
          <mxGeometry relative="1" as="geometry">
            <mxPoint x="1320" y="1160" as="sourcePoint" />
            <mxPoint x="1697" y="1160" as="targetPoint" />
          </mxGeometry>
        </mxCell>
        <mxCell id="jE9lUmCRKCD1lappJOkZ-136" value="&lt;font face=&quot;Times New Roman&quot;&gt;&lt;span style=&quot;font-size: 24px;&quot;&gt;rs1_data_E&lt;/span&gt;&lt;/font&gt;" style="text;html=1;align=center;verticalAlign=middle;whiteSpace=wrap;rounded=0;" vertex="1" parent="1">
          <mxGeometry x="1457" y="1130" width="60" height="30" as="geometry" />
        </mxCell>
        <mxCell id="jE9lUmCRKCD1lappJOkZ-137" value="&lt;font style=&quot;font-size: 24px;&quot; face=&quot;Times New Roman&quot;&gt;ALU&lt;/font&gt;" style="rounded=0;whiteSpace=wrap;html=1;" vertex="1" parent="1">
          <mxGeometry x="1930" y="880" width="200" height="390" as="geometry" />
        </mxCell>
        <mxCell id="jE9lUmCRKCD1lappJOkZ-138" style="edgeStyle=orthogonalEdgeStyle;rounded=0;orthogonalLoop=1;jettySize=auto;html=1;exitX=0.5;exitY=0;exitDx=0;exitDy=0;entryX=0.009;entryY=0.152;entryDx=0;entryDy=0;entryPerimeter=0;" edge="1" parent="1" source="jE9lUmCRKCD1lappJOkZ-129" target="jE9lUmCRKCD1lappJOkZ-137">
          <mxGeometry relative="1" as="geometry" />
        </mxCell>
        <mxCell id="jE9lUmCRKCD1lappJOkZ-139" style="edgeStyle=orthogonalEdgeStyle;rounded=0;orthogonalLoop=1;jettySize=auto;html=1;exitX=0.5;exitY=0;exitDx=0;exitDy=0;entryX=0.003;entryY=0.842;entryDx=0;entryDy=0;entryPerimeter=0;" edge="1" parent="1" source="jE9lUmCRKCD1lappJOkZ-134" target="jE9lUmCRKCD1lappJOkZ-137">
          <mxGeometry relative="1" as="geometry" />
        </mxCell>
        <mxCell id="jE9lUmCRKCD1lappJOkZ-140" value="&lt;font face=&quot;Times New Roman&quot;&gt;&lt;span style=&quot;font-size: 24px;&quot;&gt;alu_a_data&lt;/span&gt;&lt;/font&gt;" style="text;html=1;align=center;verticalAlign=middle;whiteSpace=wrap;rounded=0;" vertex="1" parent="1">
          <mxGeometry x="1810" y="900" width="60" height="30" as="geometry" />
        </mxCell>
        <mxCell id="jE9lUmCRKCD1lappJOkZ-141" value="&lt;font face=&quot;Times New Roman&quot;&gt;&lt;span style=&quot;font-size: 24px;&quot;&gt;alu_b_data&lt;/span&gt;&lt;/font&gt;" style="text;html=1;align=center;verticalAlign=middle;whiteSpace=wrap;rounded=0;" vertex="1" parent="1">
          <mxGeometry x="1810" y="1178" width="60" height="30" as="geometry" />
        </mxCell>
        <mxCell id="jE9lUmCRKCD1lappJOkZ-143" value="&lt;span style=&quot;color: rgb(0, 0, 0); font-style: normal; font-variant-ligatures: normal; font-variant-caps: normal; font-weight: 400; letter-spacing: normal; orphans: 2; text-align: center; text-indent: 0px; text-transform: none; widows: 2; word-spacing: 0px; -webkit-text-stroke-width: 0px; white-space: normal; text-decoration-thickness: initial; text-decoration-style: initial; text-decoration-color: initial; float: none; display: inline !important;&quot;&gt;&lt;font style=&quot;font-size: 20px;&quot; face=&quot;Times New Roman&quot;&gt;of&lt;/font&gt;&lt;/span&gt;" style="text;whiteSpace=wrap;html=1;" vertex="1" parent="1">
          <mxGeometry x="2210" y="1125" width="30" height="38" as="geometry" />
        </mxCell>
        <mxCell id="jE9lUmCRKCD1lappJOkZ-144" value="&lt;span style=&quot;color: rgb(0, 0, 0); font-style: normal; font-variant-ligatures: normal; font-variant-caps: normal; font-weight: 400; letter-spacing: normal; orphans: 2; text-align: center; text-indent: 0px; text-transform: none; widows: 2; word-spacing: 0px; -webkit-text-stroke-width: 0px; white-space: normal; text-decoration-thickness: initial; text-decoration-style: initial; text-decoration-color: initial; float: none; display: inline !important;&quot;&gt;&lt;font style=&quot;font-size: 20px;&quot; face=&quot;Times New Roman&quot;&gt;cf&lt;/font&gt;&lt;/span&gt;" style="text;whiteSpace=wrap;html=1;" vertex="1" parent="1">
          <mxGeometry x="2210" y="1177" width="30" height="43" as="geometry" />
        </mxCell>
        <mxCell id="jE9lUmCRKCD1lappJOkZ-145" value="&lt;span style=&quot;color: rgb(0, 0, 0); font-style: normal; font-variant-ligatures: normal; font-variant-caps: normal; font-weight: 400; letter-spacing: normal; orphans: 2; text-align: center; text-indent: 0px; text-transform: none; widows: 2; word-spacing: 0px; -webkit-text-stroke-width: 0px; white-space: normal; text-decoration-thickness: initial; text-decoration-style: initial; text-decoration-color: initial; float: none; display: inline !important;&quot;&gt;&lt;font style=&quot;font-size: 20px;&quot; face=&quot;Times New Roman&quot;&gt;zf&lt;/font&gt;&lt;/span&gt;" style="text;whiteSpace=wrap;html=1;" vertex="1" parent="1">
          <mxGeometry x="2210" y="1222" width="20" height="38" as="geometry" />
        </mxCell>
        <mxCell id="jE9lUmCRKCD1lappJOkZ-157" style="edgeStyle=orthogonalEdgeStyle;rounded=0;orthogonalLoop=1;jettySize=auto;html=1;exitX=1;exitY=0.5;exitDx=0;exitDy=0;entryX=0;entryY=0.5;entryDx=0;entryDy=0;" edge="1" parent="1" source="jE9lUmCRKCD1lappJOkZ-147" target="jE9lUmCRKCD1lappJOkZ-155">
          <mxGeometry relative="1" as="geometry" />
        </mxCell>
        <mxCell id="jE9lUmCRKCD1lappJOkZ-147" value="&lt;font style=&quot;font-size: 24px;&quot; face=&quot;Times New Roman&quot;&gt;Reg&lt;/font&gt;" style="rounded=0;whiteSpace=wrap;html=1;" vertex="1" parent="1">
          <mxGeometry x="2230" y="920" width="80" height="40" as="geometry" />
        </mxCell>
        <mxCell id="jE9lUmCRKCD1lappJOkZ-152" value="" style="endArrow=classic;html=1;rounded=0;entryX=0;entryY=0.5;entryDx=0;entryDy=0;" edge="1" parent="1" target="jE9lUmCRKCD1lappJOkZ-147">
          <mxGeometry width="50" height="50" relative="1" as="geometry">
            <mxPoint x="2130" y="940" as="sourcePoint" />
            <mxPoint x="2190" y="940" as="targetPoint" />
          </mxGeometry>
        </mxCell>
        <mxCell id="jE9lUmCRKCD1lappJOkZ-154" value="alu_result_temp" style="text;html=1;align=center;verticalAlign=middle;whiteSpace=wrap;rounded=0;" vertex="1" parent="1">
          <mxGeometry x="2150" y="910" width="60" height="30" as="geometry" />
        </mxCell>
        <mxCell id="jE9lUmCRKCD1lappJOkZ-155" value="&lt;font face=&quot;Times New Roman&quot;&gt;&lt;span style=&quot;font-size: 24px;&quot;&gt;alu_result&lt;/span&gt;&lt;/font&gt;" style="text;html=1;align=center;verticalAlign=middle;whiteSpace=wrap;rounded=0;" vertex="1" parent="1">
          <mxGeometry x="2340" y="925" width="100" height="30" as="geometry" />
        </mxCell>
        <mxCell id="jE9lUmCRKCD1lappJOkZ-176" style="edgeStyle=orthogonalEdgeStyle;rounded=0;orthogonalLoop=1;jettySize=auto;html=1;exitX=1;exitY=0.5;exitDx=0;exitDy=0;entryX=0;entryY=0.5;entryDx=0;entryDy=0;" edge="1" parent="1" source="jE9lUmCRKCD1lappJOkZ-158" target="jE9lUmCRKCD1lappJOkZ-28">
          <mxGeometry relative="1" as="geometry">
            <Array as="points">
              <mxPoint x="2240" y="535" />
              <mxPoint x="2240" y="130" />
              <mxPoint x="100" y="130" />
              <mxPoint x="100" y="515" />
            </Array>
          </mxGeometry>
        </mxCell>
        <mxCell id="jE9lUmCRKCD1lappJOkZ-158" value="&lt;font style=&quot;font-size: 24px;&quot; face=&quot;Times New Roman&quot;&gt;NPC&lt;/font&gt;" style="rounded=0;whiteSpace=wrap;html=1;" vertex="1" parent="1">
          <mxGeometry x="1930" y="340" width="200" height="390" as="geometry" />
        </mxCell>
        <mxCell id="jE9lUmCRKCD1lappJOkZ-159" value="&lt;div style=&quot;text-align: center;&quot;&gt;&lt;span style=&quot;background-color: transparent; color: light-dark(rgb(0, 0, 0), rgb(255, 255, 255)); font-size: 20px;&quot;&gt;&lt;font face=&quot;Times New Roman&quot;&gt;pc_E&lt;/font&gt;&lt;/span&gt;&lt;/div&gt;" style="text;whiteSpace=wrap;html=1;" vertex="1" parent="1">
          <mxGeometry x="1870" y="343.89" width="46" height="28" as="geometry" />
        </mxCell>
        <mxCell id="jE9lUmCRKCD1lappJOkZ-160" value="" style="endArrow=classic;html=1;rounded=0;" edge="1" parent="1">
          <mxGeometry width="50" height="50" relative="1" as="geometry">
            <mxPoint x="1870" y="375.89" as="sourcePoint" />
            <mxPoint x="1929" y="375.56" as="targetPoint" />
          </mxGeometry>
        </mxCell>
        <mxCell id="jE9lUmCRKCD1lappJOkZ-161" value="&lt;div style=&quot;text-align: center;&quot;&gt;&lt;span style=&quot;background-color: transparent; font-size: 20px;&quot;&gt;&lt;font face=&quot;Times New Roman&quot;&gt;mtvec&lt;/font&gt;&lt;/span&gt;&lt;/div&gt;" style="text;whiteSpace=wrap;html=1;" vertex="1" parent="1">
          <mxGeometry x="1864" y="386.95" width="56" height="38" as="geometry" />
        </mxCell>
        <mxCell id="jE9lUmCRKCD1lappJOkZ-162" value="" style="endArrow=classic;html=1;rounded=0;entryX=0.005;entryY=0.491;entryDx=0;entryDy=0;entryPerimeter=0;exitX=-0.002;exitY=0.917;exitDx=0;exitDy=0;exitPerimeter=0;" edge="1" parent="1" source="jE9lUmCRKCD1lappJOkZ-161">
          <mxGeometry width="50" height="50" relative="1" as="geometry">
            <mxPoint x="1813" y="421.67" as="sourcePoint" />
            <mxPoint x="1930" y="421.67" as="targetPoint" />
          </mxGeometry>
        </mxCell>
        <mxCell id="jE9lUmCRKCD1lappJOkZ-163" value="&lt;div style=&quot;text-align: center;&quot;&gt;&lt;span style=&quot;background-color: transparent; font-size: 20px;&quot;&gt;&lt;font face=&quot;Times New Roman&quot;&gt;mepc&lt;/font&gt;&lt;/span&gt;&lt;/div&gt;" style="text;whiteSpace=wrap;html=1;" vertex="1" parent="1">
          <mxGeometry x="1871" y="428.82" width="52" height="31.67" as="geometry" />
        </mxCell>
        <mxCell id="jE9lUmCRKCD1lappJOkZ-164" value="" style="endArrow=classic;html=1;rounded=0;entryX=0;entryY=0.75;entryDx=0;entryDy=0;exitX=-0.038;exitY=1.051;exitDx=0;exitDy=0;exitPerimeter=0;" edge="1" parent="1" source="jE9lUmCRKCD1lappJOkZ-163">
          <mxGeometry width="50" height="50" relative="1" as="geometry">
            <mxPoint x="1824" y="462.49" as="sourcePoint" />
            <mxPoint x="1930" y="462.49" as="targetPoint" />
          </mxGeometry>
        </mxCell>
        <mxCell id="jE9lUmCRKCD1lappJOkZ-165" value="&lt;div style=&quot;text-align: center;&quot;&gt;&lt;span style=&quot;background-color: transparent; font-size: 20px;&quot;&gt;&lt;font face=&quot;Times New Roman&quot;&gt;Jump&lt;/font&gt;&lt;/span&gt;&lt;/div&gt;" style="text;whiteSpace=wrap;html=1;" vertex="1" parent="1">
          <mxGeometry x="1870" y="480" width="52" height="29.67" as="geometry" />
        </mxCell>
        <mxCell id="jE9lUmCRKCD1lappJOkZ-166" value="" style="endArrow=classic;html=1;rounded=0;entryX=0.007;entryY=0.938;entryDx=0;entryDy=0;entryPerimeter=0;exitX=-0.044;exitY=1.066;exitDx=0;exitDy=0;exitPerimeter=0;" edge="1" parent="1" source="jE9lUmCRKCD1lappJOkZ-165">
          <mxGeometry width="50" height="50" relative="1" as="geometry">
            <mxPoint x="1823" y="511.6700000000001" as="sourcePoint" />
            <mxPoint x="1930" y="511.6700000000001" as="targetPoint" />
          </mxGeometry>
        </mxCell>
        <mxCell id="jE9lUmCRKCD1lappJOkZ-168" value="&lt;div style=&quot;text-align: center;&quot;&gt;&lt;font face=&quot;Times New Roman&quot;&gt;&lt;span style=&quot;font-size: 20px;&quot;&gt;sext_imm_E&lt;/span&gt;&lt;/font&gt;&lt;/div&gt;" style="text;whiteSpace=wrap;html=1;" vertex="1" parent="1">
          <mxGeometry x="1814" y="527.5" width="103" height="40" as="geometry" />
        </mxCell>
        <mxCell id="jE9lUmCRKCD1lappJOkZ-169" value="" style="endArrow=classic;html=1;rounded=0;exitX=-0.02;exitY=0.988;exitDx=0;exitDy=0;exitPerimeter=0;" edge="1" parent="1" source="jE9lUmCRKCD1lappJOkZ-168">
          <mxGeometry width="50" height="50" relative="1" as="geometry">
            <mxPoint x="1871" y="566.75" as="sourcePoint" />
            <mxPoint x="1930" y="566.4200000000001" as="targetPoint" />
          </mxGeometry>
        </mxCell>
        <mxCell id="jE9lUmCRKCD1lappJOkZ-170" value="&lt;div style=&quot;text-align: center;&quot;&gt;&lt;font face=&quot;Times New Roman&quot;&gt;&lt;span style=&quot;font-size: 20px;&quot;&gt;rs1_data_E&lt;/span&gt;&lt;/font&gt;&lt;/div&gt;" style="text;whiteSpace=wrap;html=1;" vertex="1" parent="1">
          <mxGeometry x="1826" y="581" width="94" height="38" as="geometry" />
        </mxCell>
        <mxCell id="jE9lUmCRKCD1lappJOkZ-171" value="" style="endArrow=classic;html=1;rounded=0;entryX=0.005;entryY=0.491;entryDx=0;entryDy=0;entryPerimeter=0;exitX=0;exitY=1;exitDx=0;exitDy=0;" edge="1" parent="1" source="jE9lUmCRKCD1lappJOkZ-170">
          <mxGeometry width="50" height="50" relative="1" as="geometry">
            <mxPoint x="1814.06" y="618.9200000000001" as="sourcePoint" />
            <mxPoint x="1931.06" y="618.9200000000001" as="targetPoint" />
          </mxGeometry>
        </mxCell>
        <mxCell id="jE9lUmCRKCD1lappJOkZ-172" value="&lt;div style=&quot;text-align: center;&quot;&gt;&lt;font face=&quot;Times New Roman&quot;&gt;&lt;span style=&quot;font-size: 20px;&quot;&gt;alu_result[0](&lt;/span&gt;&lt;/font&gt;&lt;span style=&quot;background-color: transparent; text-align: left; font-size: 20px;&quot;&gt;&lt;font face=&quot;Times New Roman&quot;&gt;cmp_result&lt;/font&gt;&lt;/span&gt;&lt;span style=&quot;font-size: 20px; font-family: &amp;quot;Times New Roman&amp;quot;; background-color: transparent; color: light-dark(rgb(0, 0, 0), rgb(255, 255, 255));&quot;&gt;)&lt;/span&gt;&lt;/div&gt;" style="text;whiteSpace=wrap;html=1;" vertex="1" parent="1">
          <mxGeometry x="1710" y="630" width="210" height="40" as="geometry" />
        </mxCell>
        <mxCell id="jE9lUmCRKCD1lappJOkZ-173" value="" style="endArrow=classic;html=1;rounded=0;entryX=0;entryY=0.75;entryDx=0;entryDy=0;exitX=0.005;exitY=0.998;exitDx=0;exitDy=0;exitPerimeter=0;" edge="1" parent="1" source="jE9lUmCRKCD1lappJOkZ-172">
          <mxGeometry width="50" height="50" relative="1" as="geometry">
            <mxPoint x="1824.06" y="670.9200000000001" as="sourcePoint" />
            <mxPoint x="1930.06" y="670.9200000000001" as="targetPoint" />
          </mxGeometry>
        </mxCell>
        <mxCell id="jE9lUmCRKCD1lappJOkZ-174" value="&lt;div style=&quot;text-align: center;&quot;&gt;&lt;span style=&quot;background-color: transparent; color: light-dark(rgb(0, 0, 0), rgb(255, 255, 255)); font-size: 20px;&quot;&gt;&lt;font face=&quot;Times New Roman&quot;&gt;zf&lt;/font&gt;&lt;/span&gt;&lt;/div&gt;" style="text;whiteSpace=wrap;html=1;" vertex="1" parent="1">
          <mxGeometry x="1886" y="680" width="30" height="28" as="geometry" />
        </mxCell>
        <mxCell id="jE9lUmCRKCD1lappJOkZ-175" value="" style="endArrow=classic;html=1;rounded=0;" edge="1" parent="1">
          <mxGeometry width="50" height="50" relative="1" as="geometry">
            <mxPoint x="1870" y="712" as="sourcePoint" />
            <mxPoint x="1929" y="711.6700000000001" as="targetPoint" />
          </mxGeometry>
        </mxCell>
        <mxCell id="jE9lUmCRKCD1lappJOkZ-177" value="&lt;font face=&quot;Times New Roman&quot;&gt;&lt;span style=&quot;font-size: 24px;&quot;&gt;npc_E&lt;/span&gt;&lt;/font&gt;" style="text;html=1;align=center;verticalAlign=middle;whiteSpace=wrap;rounded=0;" vertex="1" parent="1">
          <mxGeometry x="1310" y="90" width="60" height="30" as="geometry" />
        </mxCell>
        <mxCell id="jE9lUmCRKCD1lappJOkZ-185" value="" style="rounded=0;whiteSpace=wrap;html=1;" vertex="1" parent="1">
          <mxGeometry x="2700" y="220" width="820" height="1220" as="geometry" />
        </mxCell>
        <mxCell id="jE9lUmCRKCD1lappJOkZ-190" value="&lt;font style=&quot;font-size: 24px;&quot; face=&quot;Times New Roman&quot;&gt;MEMU&lt;/font&gt;" style="text;html=1;align=center;verticalAlign=middle;whiteSpace=wrap;rounded=0;" vertex="1" parent="1">
          <mxGeometry x="3080" y="230" width="60" height="30" as="geometry" />
        </mxCell>
        <mxCell id="jE9lUmCRKCD1lappJOkZ-192" value="&lt;font style=&quot;font-size: 20px;&quot; face=&quot;Times New Roman&quot;&gt;sram_read_write&lt;/font&gt;" style="text;whiteSpace=wrap;html=1;" vertex="1" parent="1">
          <mxGeometry x="1071.5" y="805.5" width="130" height="40" as="geometry" />
        </mxCell>
        <mxCell id="jE9lUmCRKCD1lappJOkZ-196" style="edgeStyle=orthogonalEdgeStyle;rounded=0;orthogonalLoop=1;jettySize=auto;html=1;exitX=0.5;exitY=1;exitDx=0;exitDy=0;" edge="1" parent="1" source="jE9lUmCRKCD1lappJOkZ-193" target="jE9lUmCRKCD1lappJOkZ-129">
          <mxGeometry relative="1" as="geometry" />
        </mxCell>
        <mxCell id="jE9lUmCRKCD1lappJOkZ-193" value="AluSrcB" style="text;whiteSpace=wrap;fontFamily=Times New Roman;fontSize=20;" vertex="1" parent="1">
          <mxGeometry x="1690" y="760" width="80" height="40" as="geometry" />
        </mxCell>
        <mxCell id="jE9lUmCRKCD1lappJOkZ-197" style="edgeStyle=orthogonalEdgeStyle;rounded=0;orthogonalLoop=1;jettySize=auto;html=1;exitX=0.5;exitY=0;exitDx=0;exitDy=0;entryX=1;entryY=0.5;entryDx=0;entryDy=0;" edge="1" parent="1" source="jE9lUmCRKCD1lappJOkZ-194" target="jE9lUmCRKCD1lappJOkZ-134">
          <mxGeometry relative="1" as="geometry" />
        </mxCell>
        <mxCell id="jE9lUmCRKCD1lappJOkZ-194" value="AluSrcA" style="text;whiteSpace=wrap;fontFamily=Times New Roman;fontSize=20;" vertex="1" parent="1">
          <mxGeometry x="1690" y="1350" width="80" height="40" as="geometry" />
        </mxCell>
        <mxCell id="jE9lUmCRKCD1lappJOkZ-241" style="edgeStyle=orthogonalEdgeStyle;rounded=0;orthogonalLoop=1;jettySize=auto;html=1;exitX=0.5;exitY=0;exitDx=0;exitDy=0;entryX=0;entryY=0.5;entryDx=0;entryDy=0;" edge="1" parent="1" source="jE9lUmCRKCD1lappJOkZ-198" target="jE9lUmCRKCD1lappJOkZ-201">
          <mxGeometry relative="1" as="geometry" />
        </mxCell>
        <mxCell id="jE9lUmCRKCD1lappJOkZ-198" value="&lt;font style=&quot;font-size: 24px;&quot; face=&quot;Times New Roman&quot;&gt;MUX&lt;/font&gt;" style="shape=trapezoid;perimeter=trapezoidPerimeter;whiteSpace=wrap;html=1;fixedSize=1;rotation=90;" vertex="1" parent="1">
          <mxGeometry x="3025" y="1283.75" width="220" height="60" as="geometry" />
        </mxCell>
        <mxCell id="jE9lUmCRKCD1lappJOkZ-199" style="edgeStyle=orthogonalEdgeStyle;rounded=0;orthogonalLoop=1;jettySize=auto;html=1;exitX=0.5;exitY=1;exitDx=0;exitDy=0;" edge="1" parent="1" source="jE9lUmCRKCD1lappJOkZ-200" target="jE9lUmCRKCD1lappJOkZ-198">
          <mxGeometry relative="1" as="geometry" />
        </mxCell>
        <mxCell id="jE9lUmCRKCD1lappJOkZ-200" value="Mem_RMask_M" style="text;whiteSpace=wrap;fontFamily=Times New Roman;fontSize=20;" vertex="1" parent="1">
          <mxGeometry x="3055.62" y="1107" width="158.75" height="40" as="geometry" />
        </mxCell>
        <mxCell id="jE9lUmCRKCD1lappJOkZ-202" value="" style="rounded=0;whiteSpace=wrap;html=1;" vertex="1" parent="1">
          <mxGeometry x="2740" y="310" width="435" height="372" as="geometry" />
        </mxCell>
        <mxCell id="jE9lUmCRKCD1lappJOkZ-201" value="Mem_rdata_extend" style="text;whiteSpace=wrap;fontFamily=Times New Roman;fontSize=20;" vertex="1" parent="1">
          <mxGeometry x="3280" y="1293.75" width="140" height="40" as="geometry" />
        </mxCell>
        <mxCell id="jE9lUmCRKCD1lappJOkZ-204" value="&lt;font face=&quot;Times New Roman&quot;&gt;&lt;span style=&quot;font-size: 24px;&quot;&gt;状态机读取部分&lt;/span&gt;&lt;/font&gt;" style="text;html=1;align=center;verticalAlign=middle;whiteSpace=wrap;rounded=0;" vertex="1" parent="1">
          <mxGeometry x="2871.25" y="320" width="172.5" height="40" as="geometry" />
        </mxCell>
        <mxCell id="jE9lUmCRKCD1lappJOkZ-205" value="" style="rounded=0;whiteSpace=wrap;html=1;" vertex="1" parent="1">
          <mxGeometry x="2740" y="714" width="435" height="372" as="geometry" />
        </mxCell>
        <mxCell id="jE9lUmCRKCD1lappJOkZ-206" value="&lt;font face=&quot;Times New Roman&quot;&gt;&lt;span style=&quot;font-size: 24px;&quot;&gt;状态机读写入部分&lt;/span&gt;&lt;/font&gt;" style="text;html=1;align=center;verticalAlign=middle;whiteSpace=wrap;rounded=0;" vertex="1" parent="1">
          <mxGeometry x="2835.62" y="730" width="198.75" height="40" as="geometry" />
        </mxCell>
        <mxCell id="jE9lUmCRKCD1lappJOkZ-207" value="axi_arsize" style="text;whiteSpace=wrap;fontFamily=Times New Roman;fontSize=20;" vertex="1" parent="1">
          <mxGeometry x="3050" y="414.75" width="90" height="40" as="geometry" />
        </mxCell>
        <mxCell id="jE9lUmCRKCD1lappJOkZ-212" style="edgeStyle=orthogonalEdgeStyle;rounded=0;orthogonalLoop=1;jettySize=auto;html=1;exitX=0.5;exitY=0;exitDx=0;exitDy=0;entryX=0;entryY=0.5;entryDx=0;entryDy=0;" edge="1" parent="1" source="jE9lUmCRKCD1lappJOkZ-208" target="jE9lUmCRKCD1lappJOkZ-207">
          <mxGeometry relative="1" as="geometry" />
        </mxCell>
        <mxCell id="jE9lUmCRKCD1lappJOkZ-208" value="&lt;font style=&quot;font-size: 24px;&quot; face=&quot;Times New Roman&quot;&gt;Decode&lt;/font&gt;" style="shape=trapezoid;perimeter=trapezoidPerimeter;whiteSpace=wrap;html=1;fixedSize=1;rotation=90;" vertex="1" parent="1">
          <mxGeometry x="2925" y="408" width="104.99" height="53.5" as="geometry" />
        </mxCell>
        <mxCell id="jE9lUmCRKCD1lappJOkZ-211" style="edgeStyle=orthogonalEdgeStyle;rounded=0;orthogonalLoop=1;jettySize=auto;html=1;exitX=1;exitY=0.5;exitDx=0;exitDy=0;entryX=0.5;entryY=1;entryDx=0;entryDy=0;" edge="1" parent="1" source="jE9lUmCRKCD1lappJOkZ-209" target="jE9lUmCRKCD1lappJOkZ-208">
          <mxGeometry relative="1" as="geometry" />
        </mxCell>
        <mxCell id="jE9lUmCRKCD1lappJOkZ-209" value="Mem_RMask_M" style="text;whiteSpace=wrap;fontFamily=Times New Roman;fontSize=20;" vertex="1" parent="1">
          <mxGeometry x="2746.25" y="414.75" width="145" height="40" as="geometry" />
        </mxCell>
        <mxCell id="jE9lUmCRKCD1lappJOkZ-210" value="axi_addr_suffix" style="text;whiteSpace=wrap;fontFamily=Times New Roman;fontSize=20;" vertex="1" parent="1">
          <mxGeometry x="3040" y="571" width="110" height="40" as="geometry" />
        </mxCell>
        <mxCell id="jE9lUmCRKCD1lappJOkZ-214" style="edgeStyle=orthogonalEdgeStyle;rounded=0;orthogonalLoop=1;jettySize=auto;html=1;exitX=1;exitY=0.5;exitDx=0;exitDy=0;entryX=0;entryY=0.5;entryDx=0;entryDy=0;" edge="1" parent="1" source="jE9lUmCRKCD1lappJOkZ-213" target="jE9lUmCRKCD1lappJOkZ-210">
          <mxGeometry relative="1" as="geometry" />
        </mxCell>
        <mxCell id="jE9lUmCRKCD1lappJOkZ-213" value="alu_result_M[1:0]" style="text;whiteSpace=wrap;fontSize=20;fontFamily=Times New Roman;" vertex="1" parent="1">
          <mxGeometry x="2755" y="571" width="155" height="40" as="geometry" />
        </mxCell>
        <mxCell id="jE9lUmCRKCD1lappJOkZ-215" value="axi_awsize" style="text;whiteSpace=wrap;fontFamily=Times New Roman;fontSize=20;" vertex="1" parent="1">
          <mxGeometry x="3058.75" y="816.7549999999999" width="90" height="40" as="geometry" />
        </mxCell>
        <mxCell id="jE9lUmCRKCD1lappJOkZ-216" style="edgeStyle=orthogonalEdgeStyle;rounded=0;orthogonalLoop=1;jettySize=auto;html=1;exitX=0.5;exitY=0;exitDx=0;exitDy=0;entryX=0;entryY=0.5;entryDx=0;entryDy=0;" edge="1" parent="1" source="jE9lUmCRKCD1lappJOkZ-217" target="jE9lUmCRKCD1lappJOkZ-215">
          <mxGeometry relative="1" as="geometry" />
        </mxCell>
        <mxCell id="jE9lUmCRKCD1lappJOkZ-217" value="&lt;font style=&quot;font-size: 24px;&quot; face=&quot;Times New Roman&quot;&gt;Decode&lt;/font&gt;" style="shape=trapezoid;perimeter=trapezoidPerimeter;whiteSpace=wrap;html=1;fixedSize=1;rotation=90;" vertex="1" parent="1">
          <mxGeometry x="2938.76" y="810.0049999999999" width="104.99" height="53.5" as="geometry" />
        </mxCell>
        <mxCell id="jE9lUmCRKCD1lappJOkZ-218" style="edgeStyle=orthogonalEdgeStyle;rounded=0;orthogonalLoop=1;jettySize=auto;html=1;exitX=1;exitY=0.5;exitDx=0;exitDy=0;entryX=0.5;entryY=1;entryDx=0;entryDy=0;" edge="1" parent="1" source="jE9lUmCRKCD1lappJOkZ-219" target="jE9lUmCRKCD1lappJOkZ-217">
          <mxGeometry relative="1" as="geometry" />
        </mxCell>
        <mxCell id="jE9lUmCRKCD1lappJOkZ-219" value="Mem_WMask_M" style="text;whiteSpace=wrap;fontFamily=Times New Roman;fontSize=20;" vertex="1" parent="1">
          <mxGeometry x="2755" y="816.7549999999999" width="145" height="40" as="geometry" />
        </mxCell>
        <mxCell id="jE9lUmCRKCD1lappJOkZ-223" value="axi_wstrb" style="text;whiteSpace=wrap;fontFamily=Times New Roman;fontSize=20;" vertex="1" parent="1">
          <mxGeometry x="3070" y="983.2549999999999" width="90" height="40" as="geometry" />
        </mxCell>
        <mxCell id="jE9lUmCRKCD1lappJOkZ-224" style="edgeStyle=orthogonalEdgeStyle;rounded=0;orthogonalLoop=1;jettySize=auto;html=1;exitX=0.5;exitY=0;exitDx=0;exitDy=0;entryX=0;entryY=0.5;entryDx=0;entryDy=0;" edge="1" parent="1" source="jE9lUmCRKCD1lappJOkZ-225" target="jE9lUmCRKCD1lappJOkZ-223">
          <mxGeometry relative="1" as="geometry" />
        </mxCell>
        <mxCell id="jE9lUmCRKCD1lappJOkZ-225" value="&lt;font style=&quot;font-size: 24px;&quot; face=&quot;Times New Roman&quot;&gt;Decode&lt;/font&gt;" style="shape=trapezoid;perimeter=trapezoidPerimeter;whiteSpace=wrap;html=1;fixedSize=1;rotation=90;" vertex="1" parent="1">
          <mxGeometry x="2938.76" y="976.5049999999999" width="104.99" height="53.5" as="geometry" />
        </mxCell>
        <mxCell id="jE9lUmCRKCD1lappJOkZ-226" style="edgeStyle=orthogonalEdgeStyle;rounded=0;orthogonalLoop=1;jettySize=auto;html=1;exitX=1;exitY=0.5;exitDx=0;exitDy=0;entryX=0.5;entryY=1;entryDx=0;entryDy=0;" edge="1" parent="1" source="jE9lUmCRKCD1lappJOkZ-227" target="jE9lUmCRKCD1lappJOkZ-225">
          <mxGeometry relative="1" as="geometry" />
        </mxCell>
        <mxCell id="jE9lUmCRKCD1lappJOkZ-227" value="alu_result_M[1:0]" style="text;whiteSpace=wrap;fontFamily=Times New Roman;fontSize=20;" vertex="1" parent="1">
          <mxGeometry x="2746.25" y="1014.9949999999999" width="145" height="40" as="geometry" />
        </mxCell>
        <mxCell id="jE9lUmCRKCD1lappJOkZ-229" style="edgeStyle=orthogonalEdgeStyle;rounded=0;orthogonalLoop=1;jettySize=auto;html=1;exitX=1;exitY=0.5;exitDx=0;exitDy=0;entryX=0.5;entryY=1;entryDx=0;entryDy=0;" edge="1" parent="1" source="jE9lUmCRKCD1lappJOkZ-228" target="jE9lUmCRKCD1lappJOkZ-225">
          <mxGeometry relative="1" as="geometry" />
        </mxCell>
        <mxCell id="jE9lUmCRKCD1lappJOkZ-228" value="Mem_WMask_M" style="text;whiteSpace=wrap;fontFamily=Times New Roman;fontSize=20;" vertex="1" parent="1">
          <mxGeometry x="2746.25" y="950" width="145" height="40" as="geometry" />
        </mxCell>
        <mxCell id="jE9lUmCRKCD1lappJOkZ-230" value="{{24{axi_rdata[7]}},axi_rdata[7:0]}" style="text;whiteSpace=wrap;fontSize=20;fontFamily=Times New Roman;" vertex="1" parent="1">
          <mxGeometry x="2730" y="1212" width="303.75" height="40" as="geometry" />
        </mxCell>
        <mxCell id="jE9lUmCRKCD1lappJOkZ-231" value="{24&#39;b0,axi_rdata[7:0]}" style="text;whiteSpace=wrap;fontSize=20;fontFamily=Times New Roman;" vertex="1" parent="1">
          <mxGeometry x="2843.75" y="1252" width="190" height="40" as="geometry" />
        </mxCell>
        <mxCell id="jE9lUmCRKCD1lappJOkZ-238" style="edgeStyle=orthogonalEdgeStyle;rounded=0;orthogonalLoop=1;jettySize=auto;html=1;exitX=1;exitY=0.5;exitDx=0;exitDy=0;entryX=0.506;entryY=1;entryDx=0;entryDy=0;entryPerimeter=0;" edge="1" parent="1" source="jE9lUmCRKCD1lappJOkZ-232" target="jE9lUmCRKCD1lappJOkZ-198">
          <mxGeometry relative="1" as="geometry" />
        </mxCell>
        <mxCell id="jE9lUmCRKCD1lappJOkZ-232" value="{16{axi_rdata[7]}},axi_rdata[15:0]}" style="text;whiteSpace=wrap;fontSize=20;fontFamily=Times New Roman;" vertex="1" parent="1">
          <mxGeometry x="2731.87" y="1296" width="295.63" height="40" as="geometry" />
        </mxCell>
        <mxCell id="jE9lUmCRKCD1lappJOkZ-234" value="{16&#39;b0,axi_rdata[15:0]}" style="text;whiteSpace=wrap;fontSize=20;fontFamily=Times New Roman;" vertex="1" parent="1">
          <mxGeometry x="2833.75" y="1336" width="200" height="40" as="geometry" />
        </mxCell>
        <mxCell id="jE9lUmCRKCD1lappJOkZ-235" value="axi_rdata" style="text;whiteSpace=wrap;fontSize=20;fontFamily=Times New Roman;" vertex="1" parent="1">
          <mxGeometry x="2947.5" y="1373" width="80" height="40" as="geometry" />
        </mxCell>
        <mxCell id="jE9lUmCRKCD1lappJOkZ-236" style="edgeStyle=orthogonalEdgeStyle;rounded=0;orthogonalLoop=1;jettySize=auto;html=1;exitX=1;exitY=0.5;exitDx=0;exitDy=0;" edge="1" parent="1" source="jE9lUmCRKCD1lappJOkZ-230">
          <mxGeometry relative="1" as="geometry">
            <mxPoint x="3103.75" y="1232" as="targetPoint" />
          </mxGeometry>
        </mxCell>
        <mxCell id="jE9lUmCRKCD1lappJOkZ-237" style="edgeStyle=orthogonalEdgeStyle;rounded=0;orthogonalLoop=1;jettySize=auto;html=1;exitX=1;exitY=0.5;exitDx=0;exitDy=0;entryX=0.31;entryY=1.003;entryDx=0;entryDy=0;entryPerimeter=0;" edge="1" parent="1" source="jE9lUmCRKCD1lappJOkZ-231" target="jE9lUmCRKCD1lappJOkZ-198">
          <mxGeometry relative="1" as="geometry" />
        </mxCell>
        <mxCell id="jE9lUmCRKCD1lappJOkZ-239" style="edgeStyle=orthogonalEdgeStyle;rounded=0;orthogonalLoop=1;jettySize=auto;html=1;exitX=1;exitY=0.5;exitDx=0;exitDy=0;" edge="1" parent="1" source="jE9lUmCRKCD1lappJOkZ-234">
          <mxGeometry relative="1" as="geometry">
            <mxPoint x="3103.75" y="1355" as="targetPoint" />
          </mxGeometry>
        </mxCell>
        <mxCell id="jE9lUmCRKCD1lappJOkZ-240" style="edgeStyle=orthogonalEdgeStyle;rounded=0;orthogonalLoop=1;jettySize=auto;html=1;exitX=1;exitY=0.5;exitDx=0;exitDy=0;" edge="1" parent="1" source="jE9lUmCRKCD1lappJOkZ-235">
          <mxGeometry relative="1" as="geometry">
            <mxPoint x="3103.75" y="1393" as="targetPoint" />
          </mxGeometry>
        </mxCell>
        <mxCell id="jE9lUmCRKCD1lappJOkZ-243" value="&lt;font style=&quot;font-size: 24px;&quot; face=&quot;Times New Roman&quot;&gt;exe_valid&lt;/font&gt;" style="text;html=1;align=center;verticalAlign=middle;whiteSpace=wrap;rounded=0;" vertex="1" parent="1">
          <mxGeometry x="2550" y="320" width="60" height="30" as="geometry" />
        </mxCell>
        <mxCell id="jE9lUmCRKCD1lappJOkZ-244" value="" style="endArrow=classic;html=1;rounded=0;" edge="1" parent="1">
          <mxGeometry width="50" height="50" relative="1" as="geometry">
            <mxPoint x="2460" y="350.37" as="sourcePoint" />
            <mxPoint x="2700" y="351.37" as="targetPoint" />
            <Array as="points">
              <mxPoint x="2560" y="351.37" />
            </Array>
          </mxGeometry>
        </mxCell>
        <mxCell id="jE9lUmCRKCD1lappJOkZ-245" value="&lt;font style=&quot;font-size: 24px;&quot; face=&quot;Times New Roman&quot;&gt;mem_ready&lt;/font&gt;" style="text;html=1;align=center;verticalAlign=middle;whiteSpace=wrap;rounded=0;" vertex="1" parent="1">
          <mxGeometry x="2550" y="383.5" width="60" height="30" as="geometry" />
        </mxCell>
        <mxCell id="jE9lUmCRKCD1lappJOkZ-246" value="" style="endArrow=none;html=1;rounded=0;startArrow=classicThin;startFill=1;endFill=0;entryX=0;entryY=0.184;entryDx=0;entryDy=0;entryPerimeter=0;" edge="1" parent="1">
          <mxGeometry width="50" height="50" relative="1" as="geometry">
            <mxPoint x="2460" y="413.87" as="sourcePoint" />
            <mxPoint x="2701" y="414.37" as="targetPoint" />
            <Array as="points">
              <mxPoint x="2560" y="414.87" />
            </Array>
          </mxGeometry>
        </mxCell>
        <mxCell id="jE9lUmCRKCD1lappJOkZ-248" value="" style="rounded=0;whiteSpace=wrap;html=1;" vertex="1" parent="1">
          <mxGeometry x="3760" y="220" width="520" height="1220" as="geometry" />
        </mxCell>
        <mxCell id="jE9lUmCRKCD1lappJOkZ-253" value="&lt;font style=&quot;font-size: 24px;&quot; face=&quot;Times New Roman&quot;&gt;WBU&lt;/font&gt;" style="text;html=1;align=center;verticalAlign=middle;whiteSpace=wrap;rounded=0;" vertex="1" parent="1">
          <mxGeometry x="3990" y="230" width="60" height="30" as="geometry" />
        </mxCell>
        <mxCell id="jE9lUmCRKCD1lappJOkZ-254" value="&lt;font style=&quot;font-size: 24px;&quot; face=&quot;Times New Roman&quot;&gt;mem_valid&lt;/font&gt;" style="text;html=1;align=center;verticalAlign=middle;whiteSpace=wrap;rounded=0;" vertex="1" parent="1">
          <mxGeometry x="3580" y="280" width="120" height="30" as="geometry" />
        </mxCell>
        <mxCell id="jE9lUmCRKCD1lappJOkZ-255" value="" style="endArrow=classic;html=1;rounded=0;" edge="1" parent="1">
          <mxGeometry width="50" height="50" relative="1" as="geometry">
            <mxPoint x="3520" y="314.83" as="sourcePoint" />
            <mxPoint x="3760" y="315.83" as="targetPoint" />
            <Array as="points">
              <mxPoint x="3620" y="315.83" />
            </Array>
          </mxGeometry>
        </mxCell>
        <mxCell id="jE9lUmCRKCD1lappJOkZ-256" value="&lt;font style=&quot;font-size: 24px;&quot; face=&quot;Times New Roman&quot;&gt;wb_ready&lt;/font&gt;" style="text;html=1;align=center;verticalAlign=middle;whiteSpace=wrap;rounded=0;" vertex="1" parent="1">
          <mxGeometry x="3590" y="348.95" width="100" height="30" as="geometry" />
        </mxCell>
        <mxCell id="jE9lUmCRKCD1lappJOkZ-257" value="" style="endArrow=none;html=1;rounded=0;startArrow=classicThin;startFill=1;endFill=0;entryX=0;entryY=0.184;entryDx=0;entryDy=0;entryPerimeter=0;" edge="1" parent="1">
          <mxGeometry width="50" height="50" relative="1" as="geometry">
            <mxPoint x="3520" y="378.33" as="sourcePoint" />
            <mxPoint x="3761" y="378.83" as="targetPoint" />
            <Array as="points">
              <mxPoint x="3620" y="379.33" />
            </Array>
          </mxGeometry>
        </mxCell>
        <mxCell id="jE9lUmCRKCD1lappJOkZ-278" style="edgeStyle=orthogonalEdgeStyle;rounded=0;orthogonalLoop=1;jettySize=auto;html=1;exitX=0.5;exitY=0;exitDx=0;exitDy=0;entryX=0;entryY=0.5;entryDx=0;entryDy=0;" edge="1" parent="1" source="jE9lUmCRKCD1lappJOkZ-258" target="jE9lUmCRKCD1lappJOkZ-260">
          <mxGeometry relative="1" as="geometry" />
        </mxCell>
        <mxCell id="jE9lUmCRKCD1lappJOkZ-258" value="&lt;font style=&quot;font-size: 24px;&quot; face=&quot;Times New Roman&quot;&gt;MUX&lt;/font&gt;" style="shape=trapezoid;perimeter=trapezoidPerimeter;whiteSpace=wrap;html=1;fixedSize=1;rotation=90;" vertex="1" parent="1">
          <mxGeometry x="3895.88" y="595.88" width="210" height="61.75" as="geometry" />
        </mxCell>
        <mxCell id="jE9lUmCRKCD1lappJOkZ-260" value="&lt;font face=&quot;Times New Roman&quot;&gt;&lt;span style=&quot;font-size: 24px;&quot;&gt;wdata_gpr&lt;/span&gt;&lt;/font&gt;" style="text;html=1;align=center;verticalAlign=middle;whiteSpace=wrap;rounded=0;" vertex="1" parent="1">
          <mxGeometry x="4105.88" y="611" width="110" height="30" as="geometry" />
        </mxCell>
        <mxCell id="jE9lUmCRKCD1lappJOkZ-262" style="edgeStyle=orthogonalEdgeStyle;rounded=0;orthogonalLoop=1;jettySize=auto;html=1;exitX=0.5;exitY=1;exitDx=0;exitDy=0;" edge="1" parent="1" source="jE9lUmCRKCD1lappJOkZ-263" target="jE9lUmCRKCD1lappJOkZ-258">
          <mxGeometry relative="1" as="geometry" />
        </mxCell>
        <mxCell id="jE9lUmCRKCD1lappJOkZ-263" value="Gpr_Write_RD" style="text;whiteSpace=wrap;fontFamily=Times New Roman;fontSize=20;" vertex="1" parent="1">
          <mxGeometry x="3930" y="408" width="140" height="40" as="geometry" />
        </mxCell>
        <mxCell id="jE9lUmCRKCD1lappJOkZ-266" value="sext_imm" style="text;whiteSpace=wrap;fontSize=20;fontFamily=Times New Roman;" vertex="1" parent="1">
          <mxGeometry x="3842.5" y="520" width="87.5" height="40" as="geometry" />
        </mxCell>
        <mxCell id="jE9lUmCRKCD1lappJOkZ-267" value="alu_result" style="text;whiteSpace=wrap;fontSize=20;fontFamily=Times New Roman;" vertex="1" parent="1">
          <mxGeometry x="3842.5" y="560" width="87.5" height="40" as="geometry" />
        </mxCell>
        <mxCell id="jE9lUmCRKCD1lappJOkZ-268" value="pc+4" style="text;whiteSpace=wrap;fontSize=20;fontFamily=Times New Roman;" vertex="1" parent="1">
          <mxGeometry x="3880" y="599" width="50" height="40" as="geometry" />
        </mxCell>
        <mxCell id="jE9lUmCRKCD1lappJOkZ-269" value="Mem_rdata_extend" style="text;whiteSpace=wrap;fontSize=20;fontFamily=Times New Roman;" vertex="1" parent="1">
          <mxGeometry x="3765" y="639" width="160" height="40" as="geometry" />
        </mxCell>
        <mxCell id="jE9lUmCRKCD1lappJOkZ-270" value="rdata_csr" style="text;whiteSpace=wrap;fontSize=20;fontFamily=Times New Roman;" vertex="1" parent="1">
          <mxGeometry x="3845" y="688" width="75" height="40" as="geometry" />
        </mxCell>
        <mxCell id="jE9lUmCRKCD1lappJOkZ-272" style="edgeStyle=orthogonalEdgeStyle;rounded=0;orthogonalLoop=1;jettySize=auto;html=1;exitX=1;exitY=0.5;exitDx=0;exitDy=0;entryX=0.09;entryY=0.986;entryDx=0;entryDy=0;entryPerimeter=0;" edge="1" parent="1" source="jE9lUmCRKCD1lappJOkZ-266" target="jE9lUmCRKCD1lappJOkZ-258">
          <mxGeometry relative="1" as="geometry" />
        </mxCell>
        <mxCell id="jE9lUmCRKCD1lappJOkZ-273" style="edgeStyle=orthogonalEdgeStyle;rounded=0;orthogonalLoop=1;jettySize=auto;html=1;exitX=1;exitY=0.5;exitDx=0;exitDy=0;entryX=0.276;entryY=0.993;entryDx=0;entryDy=0;entryPerimeter=0;" edge="1" parent="1" source="jE9lUmCRKCD1lappJOkZ-267" target="jE9lUmCRKCD1lappJOkZ-258">
          <mxGeometry relative="1" as="geometry" />
        </mxCell>
        <mxCell id="jE9lUmCRKCD1lappJOkZ-274" style="edgeStyle=orthogonalEdgeStyle;rounded=0;orthogonalLoop=1;jettySize=auto;html=1;exitX=1;exitY=0.5;exitDx=0;exitDy=0;entryX=0.463;entryY=0.971;entryDx=0;entryDy=0;entryPerimeter=0;" edge="1" parent="1" source="jE9lUmCRKCD1lappJOkZ-268" target="jE9lUmCRKCD1lappJOkZ-258">
          <mxGeometry relative="1" as="geometry" />
        </mxCell>
        <mxCell id="jE9lUmCRKCD1lappJOkZ-275" style="edgeStyle=orthogonalEdgeStyle;rounded=0;orthogonalLoop=1;jettySize=auto;html=1;exitX=1;exitY=0.5;exitDx=0;exitDy=0;entryX=0.655;entryY=0.998;entryDx=0;entryDy=0;entryPerimeter=0;" edge="1" parent="1" source="jE9lUmCRKCD1lappJOkZ-269" target="jE9lUmCRKCD1lappJOkZ-258">
          <mxGeometry relative="1" as="geometry" />
        </mxCell>
        <mxCell id="jE9lUmCRKCD1lappJOkZ-277" style="edgeStyle=orthogonalEdgeStyle;rounded=0;orthogonalLoop=1;jettySize=auto;html=1;entryX=0.886;entryY=1;entryDx=0;entryDy=0;entryPerimeter=0;" edge="1" parent="1" source="jE9lUmCRKCD1lappJOkZ-270" target="jE9lUmCRKCD1lappJOkZ-258">
          <mxGeometry relative="1" as="geometry" />
        </mxCell>
        <mxCell id="jE9lUmCRKCD1lappJOkZ-279" style="edgeStyle=orthogonalEdgeStyle;rounded=0;orthogonalLoop=1;jettySize=auto;html=1;exitX=0.5;exitY=0;exitDx=0;exitDy=0;entryX=0;entryY=0.5;entryDx=0;entryDy=0;" edge="1" parent="1" source="jE9lUmCRKCD1lappJOkZ-280" target="jE9lUmCRKCD1lappJOkZ-281">
          <mxGeometry relative="1" as="geometry" />
        </mxCell>
        <mxCell id="jE9lUmCRKCD1lappJOkZ-280" value="&lt;font style=&quot;font-size: 24px;&quot; face=&quot;Times New Roman&quot;&gt;MUX&lt;/font&gt;" style="shape=trapezoid;perimeter=trapezoidPerimeter;whiteSpace=wrap;html=1;fixedSize=1;rotation=90;" vertex="1" parent="1">
          <mxGeometry x="3906.32" y="1014.8800000000001" width="210" height="61.75" as="geometry" />
        </mxCell>
        <mxCell id="jE9lUmCRKCD1lappJOkZ-281" value="&lt;font face=&quot;Times New Roman&quot;&gt;&lt;span style=&quot;font-size: 24px;&quot;&gt;wdata_csr&lt;/span&gt;&lt;/font&gt;" style="text;html=1;align=center;verticalAlign=middle;whiteSpace=wrap;rounded=0;" vertex="1" parent="1">
          <mxGeometry x="4116.32" y="1030" width="110" height="30" as="geometry" />
        </mxCell>
        <mxCell id="jE9lUmCRKCD1lappJOkZ-282" style="edgeStyle=orthogonalEdgeStyle;rounded=0;orthogonalLoop=1;jettySize=auto;html=1;exitX=0.5;exitY=1;exitDx=0;exitDy=0;" edge="1" parent="1" source="jE9lUmCRKCD1lappJOkZ-283" target="jE9lUmCRKCD1lappJOkZ-280">
          <mxGeometry relative="1" as="geometry" />
        </mxCell>
        <mxCell id="jE9lUmCRKCD1lappJOkZ-283" value="Csr_Write_RD" style="text;whiteSpace=wrap;fontFamily=Times New Roman;fontSize=20;" vertex="1" parent="1">
          <mxGeometry x="3940.44" y="827" width="140" height="40" as="geometry" />
        </mxCell>
        <mxCell id="jE9lUmCRKCD1lappJOkZ-284" value="pc" style="text;whiteSpace=wrap;fontSize=20;fontFamily=Times New Roman;" vertex="1" parent="1">
          <mxGeometry x="3906.32" y="960" width="27.06" height="40" as="geometry" />
        </mxCell>
        <mxCell id="jE9lUmCRKCD1lappJOkZ-294" style="edgeStyle=orthogonalEdgeStyle;rounded=0;orthogonalLoop=1;jettySize=auto;html=1;exitX=1;exitY=0.5;exitDx=0;exitDy=0;" edge="1" parent="1" source="jE9lUmCRKCD1lappJOkZ-285">
          <mxGeometry relative="1" as="geometry">
            <mxPoint x="3980" y="1045" as="targetPoint" />
          </mxGeometry>
        </mxCell>
        <mxCell id="jE9lUmCRKCD1lappJOkZ-285" value="rs1_data" style="text;whiteSpace=wrap;fontSize=20;fontFamily=Times New Roman;" vertex="1" parent="1">
          <mxGeometry x="3856.32" y="1025" width="77.06" height="40" as="geometry" />
        </mxCell>
        <mxCell id="jE9lUmCRKCD1lappJOkZ-288" value="rdata_csr | rs1_data" style="text;whiteSpace=wrap;fontSize=20;fontFamily=Times New Roman;" vertex="1" parent="1">
          <mxGeometry x="3772.94" y="1100" width="160.44" height="40" as="geometry" />
        </mxCell>
        <mxCell id="jE9lUmCRKCD1lappJOkZ-295" style="edgeStyle=orthogonalEdgeStyle;rounded=0;orthogonalLoop=1;jettySize=auto;html=1;exitX=1;exitY=0.5;exitDx=0;exitDy=0;" edge="1" parent="1" source="jE9lUmCRKCD1lappJOkZ-284">
          <mxGeometry relative="1" as="geometry">
            <mxPoint x="3980" y="980" as="targetPoint" />
          </mxGeometry>
        </mxCell>
        <mxCell id="jE9lUmCRKCD1lappJOkZ-296" style="edgeStyle=orthogonalEdgeStyle;rounded=0;orthogonalLoop=1;jettySize=auto;html=1;exitX=1;exitY=0.5;exitDx=0;exitDy=0;" edge="1" parent="1" source="jE9lUmCRKCD1lappJOkZ-288">
          <mxGeometry relative="1" as="geometry">
            <mxPoint x="3980" y="1120" as="targetPoint" />
          </mxGeometry>
        </mxCell>
        <mxCell id="jE9lUmCRKCD1lappJOkZ-299" style="edgeStyle=orthogonalEdgeStyle;rounded=0;orthogonalLoop=1;jettySize=auto;html=1;exitX=0;exitY=0.5;exitDx=0;exitDy=0;entryX=1.001;entryY=0.797;entryDx=0;entryDy=0;entryPerimeter=0;startArrow=classic;startFill=1;endArrow=none;endFill=0;" edge="1" parent="1" source="jE9lUmCRKCD1lappJOkZ-105" target="jE9lUmCRKCD1lappJOkZ-77">
          <mxGeometry relative="1" as="geometry" />
        </mxCell>
        <mxCell id="jE9lUmCRKCD1lappJOkZ-300" style="edgeStyle=orthogonalEdgeStyle;rounded=0;orthogonalLoop=1;jettySize=auto;html=1;exitX=0;exitY=0.5;exitDx=0;exitDy=0;entryX=1;entryY=0.474;entryDx=0;entryDy=0;entryPerimeter=0;startArrow=classicThin;startFill=1;endArrow=none;endFill=0;" edge="1" parent="1" source="jE9lUmCRKCD1lappJOkZ-104" target="jE9lUmCRKCD1lappJOkZ-77">
          <mxGeometry relative="1" as="geometry" />
        </mxCell>
        <mxCell id="jE9lUmCRKCD1lappJOkZ-301" style="edgeStyle=orthogonalEdgeStyle;rounded=0;orthogonalLoop=1;jettySize=auto;html=1;exitX=0;exitY=0.5;exitDx=0;exitDy=0;entryX=1;entryY=0.195;entryDx=0;entryDy=0;entryPerimeter=0;startArrow=classicThin;startFill=1;endArrow=none;endFill=0;" edge="1" parent="1" source="jE9lUmCRKCD1lappJOkZ-103" target="jE9lUmCRKCD1lappJOkZ-77">
          <mxGeometry relative="1" as="geometry" />
        </mxCell>
        <mxCell id="jE9lUmCRKCD1lappJOkZ-302" style="edgeStyle=orthogonalEdgeStyle;rounded=0;orthogonalLoop=1;jettySize=auto;html=1;entryX=0.996;entryY=0.025;entryDx=0;entryDy=0;entryPerimeter=0;startArrow=classicThin;startFill=1;endArrow=none;endFill=0;" edge="1" parent="1" source="jE9lUmCRKCD1lappJOkZ-55" target="jE9lUmCRKCD1lappJOkZ-36">
          <mxGeometry relative="1" as="geometry" />
        </mxCell>
        <mxCell id="jE9lUmCRKCD1lappJOkZ-303" style="edgeStyle=orthogonalEdgeStyle;rounded=0;orthogonalLoop=1;jettySize=auto;html=1;exitX=0;exitY=0.5;exitDx=0;exitDy=0;entryX=0.982;entryY=0.087;entryDx=0;entryDy=0;entryPerimeter=0;startArrow=classicThin;startFill=1;endArrow=none;endFill=0;" edge="1" parent="1" source="jE9lUmCRKCD1lappJOkZ-56" target="jE9lUmCRKCD1lappJOkZ-36">
          <mxGeometry relative="1" as="geometry" />
        </mxCell>
        <mxCell id="jE9lUmCRKCD1lappJOkZ-304" style="edgeStyle=orthogonalEdgeStyle;rounded=0;orthogonalLoop=1;jettySize=auto;html=1;exitX=0;exitY=0.5;exitDx=0;exitDy=0;entryX=0.996;entryY=0.145;entryDx=0;entryDy=0;entryPerimeter=0;startArrow=classicThin;startFill=1;endArrow=none;endFill=0;" edge="1" parent="1" source="jE9lUmCRKCD1lappJOkZ-57" target="jE9lUmCRKCD1lappJOkZ-36">
          <mxGeometry relative="1" as="geometry" />
        </mxCell>
        <mxCell id="jE9lUmCRKCD1lappJOkZ-305" style="edgeStyle=orthogonalEdgeStyle;rounded=0;orthogonalLoop=1;jettySize=auto;html=1;exitX=0;exitY=0.5;exitDx=0;exitDy=0;entryX=0.996;entryY=0.201;entryDx=0;entryDy=0;entryPerimeter=0;startArrow=classicThin;startFill=1;endArrow=none;endFill=0;" edge="1" parent="1" source="jE9lUmCRKCD1lappJOkZ-58" target="jE9lUmCRKCD1lappJOkZ-36">
          <mxGeometry relative="1" as="geometry" />
        </mxCell>
        <mxCell id="jE9lUmCRKCD1lappJOkZ-306" style="edgeStyle=orthogonalEdgeStyle;rounded=0;orthogonalLoop=1;jettySize=auto;html=1;exitX=0;exitY=0.5;exitDx=0;exitDy=0;entryX=0.987;entryY=0.261;entryDx=0;entryDy=0;entryPerimeter=0;startArrow=classicThin;startFill=1;endArrow=none;endFill=0;" edge="1" parent="1" source="jE9lUmCRKCD1lappJOkZ-59" target="jE9lUmCRKCD1lappJOkZ-36">
          <mxGeometry relative="1" as="geometry" />
        </mxCell>
        <mxCell id="jE9lUmCRKCD1lappJOkZ-307" style="edgeStyle=orthogonalEdgeStyle;rounded=0;orthogonalLoop=1;jettySize=auto;html=1;exitX=0;exitY=0.5;exitDx=0;exitDy=0;entryX=0.982;entryY=0.315;entryDx=0;entryDy=0;entryPerimeter=0;startArrow=classicThin;startFill=1;endArrow=none;endFill=0;" edge="1" parent="1" source="jE9lUmCRKCD1lappJOkZ-61" target="jE9lUmCRKCD1lappJOkZ-36">
          <mxGeometry relative="1" as="geometry" />
        </mxCell>
        <mxCell id="jE9lUmCRKCD1lappJOkZ-308" style="edgeStyle=orthogonalEdgeStyle;rounded=0;orthogonalLoop=1;jettySize=auto;html=1;exitX=0;exitY=0.5;exitDx=0;exitDy=0;entryX=0.987;entryY=0.37;entryDx=0;entryDy=0;entryPerimeter=0;startArrow=classicThin;startFill=1;endArrow=none;endFill=0;" edge="1" parent="1" source="jE9lUmCRKCD1lappJOkZ-62" target="jE9lUmCRKCD1lappJOkZ-36">
          <mxGeometry relative="1" as="geometry" />
        </mxCell>
        <mxCell id="jE9lUmCRKCD1lappJOkZ-309" style="edgeStyle=orthogonalEdgeStyle;rounded=0;orthogonalLoop=1;jettySize=auto;html=1;exitX=0;exitY=0.5;exitDx=0;exitDy=0;entryX=0.992;entryY=0.422;entryDx=0;entryDy=0;entryPerimeter=0;startArrow=classicThin;startFill=1;endArrow=none;endFill=0;" edge="1" parent="1" source="jE9lUmCRKCD1lappJOkZ-66" target="jE9lUmCRKCD1lappJOkZ-36">
          <mxGeometry relative="1" as="geometry" />
        </mxCell>
        <mxCell id="jE9lUmCRKCD1lappJOkZ-310" style="edgeStyle=orthogonalEdgeStyle;rounded=0;orthogonalLoop=1;jettySize=auto;html=1;exitX=0;exitY=0.5;exitDx=0;exitDy=0;entryX=0.995;entryY=0.478;entryDx=0;entryDy=0;entryPerimeter=0;startArrow=classicThin;startFill=1;endArrow=none;endFill=0;" edge="1" parent="1" source="jE9lUmCRKCD1lappJOkZ-67" target="jE9lUmCRKCD1lappJOkZ-36">
          <mxGeometry relative="1" as="geometry" />
        </mxCell>
        <mxCell id="jE9lUmCRKCD1lappJOkZ-311" style="edgeStyle=orthogonalEdgeStyle;rounded=0;orthogonalLoop=1;jettySize=auto;html=1;exitX=0;exitY=0.5;exitDx=0;exitDy=0;entryX=0.991;entryY=0.533;entryDx=0;entryDy=0;entryPerimeter=0;startArrow=classicThin;startFill=1;endArrow=none;endFill=0;" edge="1" parent="1" source="jE9lUmCRKCD1lappJOkZ-68" target="jE9lUmCRKCD1lappJOkZ-36">
          <mxGeometry relative="1" as="geometry" />
        </mxCell>
        <mxCell id="jE9lUmCRKCD1lappJOkZ-312" style="edgeStyle=orthogonalEdgeStyle;rounded=0;orthogonalLoop=1;jettySize=auto;html=1;exitX=0;exitY=0.5;exitDx=0;exitDy=0;entryX=1.003;entryY=0.596;entryDx=0;entryDy=0;entryPerimeter=0;startArrow=classicThin;startFill=1;endArrow=none;endFill=0;" edge="1" parent="1" source="jE9lUmCRKCD1lappJOkZ-69" target="jE9lUmCRKCD1lappJOkZ-36">
          <mxGeometry relative="1" as="geometry" />
        </mxCell>
        <mxCell id="jE9lUmCRKCD1lappJOkZ-313" style="edgeStyle=orthogonalEdgeStyle;rounded=0;orthogonalLoop=1;jettySize=auto;html=1;exitX=0;exitY=0.5;exitDx=0;exitDy=0;entryX=1.001;entryY=0.662;entryDx=0;entryDy=0;entryPerimeter=0;startArrow=classicThin;startFill=1;endArrow=none;endFill=0;" edge="1" parent="1" source="jE9lUmCRKCD1lappJOkZ-71" target="jE9lUmCRKCD1lappJOkZ-36">
          <mxGeometry relative="1" as="geometry" />
        </mxCell>
        <mxCell id="jE9lUmCRKCD1lappJOkZ-314" style="edgeStyle=orthogonalEdgeStyle;rounded=0;orthogonalLoop=1;jettySize=auto;html=1;exitX=0;exitY=0.5;exitDx=0;exitDy=0;entryX=0.996;entryY=0.728;entryDx=0;entryDy=0;entryPerimeter=0;startArrow=classicThin;startFill=1;endArrow=none;endFill=0;" edge="1" parent="1" source="jE9lUmCRKCD1lappJOkZ-72" target="jE9lUmCRKCD1lappJOkZ-36">
          <mxGeometry relative="1" as="geometry" />
        </mxCell>
        <mxCell id="jE9lUmCRKCD1lappJOkZ-315" style="edgeStyle=orthogonalEdgeStyle;rounded=0;orthogonalLoop=1;jettySize=auto;html=1;exitX=0;exitY=0.5;exitDx=0;exitDy=0;entryX=1.004;entryY=0.787;entryDx=0;entryDy=0;entryPerimeter=0;startArrow=classicThin;startFill=1;endArrow=none;endFill=0;" edge="1" parent="1" source="jE9lUmCRKCD1lappJOkZ-63" target="jE9lUmCRKCD1lappJOkZ-36">
          <mxGeometry relative="1" as="geometry" />
        </mxCell>
        <mxCell id="jE9lUmCRKCD1lappJOkZ-316" style="edgeStyle=orthogonalEdgeStyle;rounded=0;orthogonalLoop=1;jettySize=auto;html=1;exitX=0;exitY=0.5;exitDx=0;exitDy=0;entryX=0.999;entryY=0.846;entryDx=0;entryDy=0;entryPerimeter=0;startArrow=classicThin;startFill=1;endArrow=none;endFill=0;" edge="1" parent="1" source="jE9lUmCRKCD1lappJOkZ-192" target="jE9lUmCRKCD1lappJOkZ-36">
          <mxGeometry relative="1" as="geometry" />
        </mxCell>
        <mxCell id="jE9lUmCRKCD1lappJOkZ-317" style="edgeStyle=orthogonalEdgeStyle;rounded=0;orthogonalLoop=1;jettySize=auto;html=1;exitX=0;exitY=0.5;exitDx=0;exitDy=0;entryX=1.002;entryY=0.912;entryDx=0;entryDy=0;entryPerimeter=0;startArrow=classicThin;startFill=1;endArrow=none;endFill=0;" edge="1" parent="1" source="jE9lUmCRKCD1lappJOkZ-107" target="jE9lUmCRKCD1lappJOkZ-36">
          <mxGeometry relative="1" as="geometry" />
        </mxCell>
        <mxCell id="jE9lUmCRKCD1lappJOkZ-318" style="edgeStyle=orthogonalEdgeStyle;rounded=0;orthogonalLoop=1;jettySize=auto;html=1;exitX=0;exitY=0.5;exitDx=0;exitDy=0;entryX=0.998;entryY=0.977;entryDx=0;entryDy=0;entryPerimeter=0;startArrow=classicThin;startFill=1;endArrow=none;endFill=0;" edge="1" parent="1" source="jE9lUmCRKCD1lappJOkZ-65" target="jE9lUmCRKCD1lappJOkZ-36">
          <mxGeometry relative="1" as="geometry" />
        </mxCell>
        <mxCell id="jE9lUmCRKCD1lappJOkZ-319" style="edgeStyle=orthogonalEdgeStyle;rounded=0;orthogonalLoop=1;jettySize=auto;html=1;exitX=0;exitY=0.5;exitDx=0;exitDy=0;entryX=1.002;entryY=0.675;entryDx=0;entryDy=0;entryPerimeter=0;startArrow=classicThin;startFill=1;endArrow=none;endFill=0;" edge="1" parent="1" source="jE9lUmCRKCD1lappJOkZ-143" target="jE9lUmCRKCD1lappJOkZ-137">
          <mxGeometry relative="1" as="geometry" />
        </mxCell>
        <mxCell id="jE9lUmCRKCD1lappJOkZ-320" style="edgeStyle=orthogonalEdgeStyle;rounded=0;orthogonalLoop=1;jettySize=auto;html=1;exitX=0;exitY=0.5;exitDx=0;exitDy=0;entryX=0.995;entryY=0.815;entryDx=0;entryDy=0;entryPerimeter=0;startArrow=classicThin;startFill=1;endArrow=none;endFill=0;" edge="1" parent="1" source="jE9lUmCRKCD1lappJOkZ-144" target="jE9lUmCRKCD1lappJOkZ-137">
          <mxGeometry relative="1" as="geometry" />
        </mxCell>
        <mxCell id="jE9lUmCRKCD1lappJOkZ-321" style="edgeStyle=orthogonalEdgeStyle;rounded=0;orthogonalLoop=1;jettySize=auto;html=1;exitX=0;exitY=0.5;exitDx=0;exitDy=0;entryX=1.002;entryY=0.925;entryDx=0;entryDy=0;entryPerimeter=0;startArrow=classicThin;startFill=1;endArrow=none;endFill=0;" edge="1" parent="1" source="jE9lUmCRKCD1lappJOkZ-145" target="jE9lUmCRKCD1lappJOkZ-137">
          <mxGeometry relative="1" as="geometry" />
        </mxCell>
        <mxCell id="jE9lUmCRKCD1lappJOkZ-332" value="&lt;span style=&quot;color: rgb(0, 0, 0); font-style: normal; font-variant-ligatures: normal; font-variant-caps: normal; font-weight: 400; letter-spacing: normal; orphans: 2; text-align: center; text-indent: 0px; text-transform: none; widows: 2; word-spacing: 0px; -webkit-text-stroke-width: 0px; white-space: normal; text-decoration-thickness: initial; text-decoration-style: initial; text-decoration-color: initial; float: none; display: inline !important;&quot;&gt;&lt;font style=&quot;font-size: 20px;&quot; face=&quot;Times New Roman&quot;&gt;Gpr_Write_W&lt;/font&gt;&lt;/span&gt;" style="text;whiteSpace=wrap;html=1;" vertex="1" parent="1">
          <mxGeometry x="4440" y="259.99999999999994" width="113" height="38" as="geometry" />
        </mxCell>
        <mxCell id="jE9lUmCRKCD1lappJOkZ-334" value="&lt;span style=&quot;color: rgb(0, 0, 0); font-style: normal; font-variant-ligatures: normal; font-variant-caps: normal; font-weight: 400; letter-spacing: normal; orphans: 2; text-align: center; text-indent: 0px; text-transform: none; widows: 2; word-spacing: 0px; -webkit-text-stroke-width: 0px; white-space: normal; text-decoration-thickness: initial; text-decoration-style: initial; text-decoration-color: initial; float: none; display: inline !important;&quot;&gt;&lt;font style=&quot;font-size: 20px;&quot; face=&quot;Times New Roman&quot;&gt;wdata_gpr_W&lt;/font&gt;&lt;/span&gt;" style="text;whiteSpace=wrap;html=1;" vertex="1" parent="1">
          <mxGeometry x="4440" y="309.99999999999994" width="113" height="38" as="geometry" />
        </mxCell>
        <mxCell id="jE9lUmCRKCD1lappJOkZ-336" value="&lt;span style=&quot;color: rgb(0, 0, 0); font-style: normal; font-variant-ligatures: normal; font-variant-caps: normal; font-weight: 400; letter-spacing: normal; orphans: 2; text-align: center; text-indent: 0px; text-transform: none; widows: 2; word-spacing: 0px; -webkit-text-stroke-width: 0px; white-space: normal; text-decoration-thickness: initial; text-decoration-style: initial; text-decoration-color: initial; float: none; display: inline !important;&quot;&gt;&lt;font style=&quot;font-size: 20px;&quot; face=&quot;Times New Roman&quot;&gt;irq_W&lt;/font&gt;&lt;/span&gt;" style="text;whiteSpace=wrap;html=1;" vertex="1" parent="1">
          <mxGeometry x="4440" y="438" width="60" height="38" as="geometry" />
        </mxCell>
        <mxCell id="jE9lUmCRKCD1lappJOkZ-338" value="&lt;span style=&quot;color: rgb(0, 0, 0); font-style: normal; font-variant-ligatures: normal; font-variant-caps: normal; font-weight: 400; letter-spacing: normal; orphans: 2; text-align: center; text-indent: 0px; text-transform: none; widows: 2; word-spacing: 0px; -webkit-text-stroke-width: 0px; white-space: normal; text-decoration-thickness: initial; text-decoration-style: initial; text-decoration-color: initial; float: none; display: inline !important;&quot;&gt;&lt;font style=&quot;font-size: 20px;&quot; face=&quot;Times New Roman&quot;&gt;irq_no_W&lt;/font&gt;&lt;/span&gt;" style="text;whiteSpace=wrap;html=1;" vertex="1" parent="1">
          <mxGeometry x="4440" y="475.99999999999994" width="86" height="38" as="geometry" />
        </mxCell>
        <mxCell id="jE9lUmCRKCD1lappJOkZ-340" value="&lt;span style=&quot;color: rgb(0, 0, 0); font-style: normal; font-variant-ligatures: normal; font-variant-caps: normal; font-weight: 400; letter-spacing: normal; orphans: 2; text-align: center; text-indent: 0px; text-transform: none; widows: 2; word-spacing: 0px; -webkit-text-stroke-width: 0px; white-space: normal; text-decoration-thickness: initial; text-decoration-style: initial; text-decoration-color: initial; float: none; display: inline !important;&quot;&gt;&lt;font style=&quot;font-size: 20px;&quot; face=&quot;Times New Roman&quot;&gt;Csr_Write_W&lt;/font&gt;&lt;/span&gt;" style="text;whiteSpace=wrap;html=1;" vertex="1" parent="1">
          <mxGeometry x="4440" y="526" width="113" height="38" as="geometry" />
        </mxCell>
        <mxCell id="jE9lUmCRKCD1lappJOkZ-342" value="&lt;span style=&quot;color: rgb(0, 0, 0); font-style: normal; font-variant-ligatures: normal; font-variant-caps: normal; font-weight: 400; letter-spacing: normal; orphans: 2; text-align: center; text-indent: 0px; text-transform: none; widows: 2; word-spacing: 0px; -webkit-text-stroke-width: 0px; white-space: normal; text-decoration-thickness: initial; text-decoration-style: initial; text-decoration-color: initial; float: none; display: inline !important;&quot;&gt;&lt;font style=&quot;font-size: 20px;&quot; face=&quot;Times New Roman&quot;&gt;wdata_csr_W&lt;/font&gt;&lt;/span&gt;" style="text;whiteSpace=wrap;html=1;" vertex="1" parent="1">
          <mxGeometry x="4440" y="565.5" width="113" height="38" as="geometry" />
        </mxCell>
        <mxCell id="jE9lUmCRKCD1lappJOkZ-344" style="edgeStyle=orthogonalEdgeStyle;rounded=0;orthogonalLoop=1;jettySize=auto;html=1;exitX=0;exitY=0.5;exitDx=0;exitDy=0;entryX=1.002;entryY=0.049;entryDx=0;entryDy=0;entryPerimeter=0;startArrow=classicThin;startFill=1;endArrow=none;endFill=0;" edge="1" parent="1" source="jE9lUmCRKCD1lappJOkZ-332" target="jE9lUmCRKCD1lappJOkZ-248">
          <mxGeometry relative="1" as="geometry" />
        </mxCell>
        <mxCell id="jE9lUmCRKCD1lappJOkZ-345" style="edgeStyle=orthogonalEdgeStyle;rounded=0;orthogonalLoop=1;jettySize=auto;html=1;exitX=0;exitY=0.5;exitDx=0;exitDy=0;entryX=0.996;entryY=0.089;entryDx=0;entryDy=0;entryPerimeter=0;startArrow=classicThin;startFill=1;endArrow=none;endFill=0;" edge="1" parent="1" source="jE9lUmCRKCD1lappJOkZ-334" target="jE9lUmCRKCD1lappJOkZ-248">
          <mxGeometry relative="1" as="geometry" />
        </mxCell>
        <mxCell id="jE9lUmCRKCD1lappJOkZ-346" style="edgeStyle=orthogonalEdgeStyle;rounded=0;orthogonalLoop=1;jettySize=auto;html=1;exitX=0;exitY=0.5;exitDx=0;exitDy=0;entryX=1;entryY=0.194;entryDx=0;entryDy=0;entryPerimeter=0;startArrow=classicThin;startFill=1;endArrow=none;endFill=0;" edge="1" parent="1" source="jE9lUmCRKCD1lappJOkZ-336" target="jE9lUmCRKCD1lappJOkZ-248">
          <mxGeometry relative="1" as="geometry" />
        </mxCell>
        <mxCell id="jE9lUmCRKCD1lappJOkZ-347" style="edgeStyle=orthogonalEdgeStyle;rounded=0;orthogonalLoop=1;jettySize=auto;html=1;exitX=0;exitY=0.5;exitDx=0;exitDy=0;entryX=0.999;entryY=0.225;entryDx=0;entryDy=0;entryPerimeter=0;startArrow=classicThin;startFill=1;endArrow=none;endFill=0;" edge="1" parent="1" source="jE9lUmCRKCD1lappJOkZ-338" target="jE9lUmCRKCD1lappJOkZ-248">
          <mxGeometry relative="1" as="geometry" />
        </mxCell>
        <mxCell id="jE9lUmCRKCD1lappJOkZ-348" style="edgeStyle=orthogonalEdgeStyle;rounded=0;orthogonalLoop=1;jettySize=auto;html=1;exitX=0;exitY=0.5;exitDx=0;exitDy=0;entryX=1.003;entryY=0.266;entryDx=0;entryDy=0;entryPerimeter=0;startArrow=classicThin;startFill=1;endArrow=none;endFill=0;" edge="1" parent="1" source="jE9lUmCRKCD1lappJOkZ-340" target="jE9lUmCRKCD1lappJOkZ-248">
          <mxGeometry relative="1" as="geometry" />
        </mxCell>
        <mxCell id="jE9lUmCRKCD1lappJOkZ-349" style="edgeStyle=orthogonalEdgeStyle;rounded=0;orthogonalLoop=1;jettySize=auto;html=1;exitX=0;exitY=0.5;exitDx=0;exitDy=0;entryX=0.996;entryY=0.299;entryDx=0;entryDy=0;entryPerimeter=0;startArrow=classicThin;startFill=1;endArrow=none;endFill=0;" edge="1" parent="1" source="jE9lUmCRKCD1lappJOkZ-342" target="jE9lUmCRKCD1lappJOkZ-248">
          <mxGeometry relative="1" as="geometry" />
        </mxCell>
      </root>
    </mxGraphModel>
  </diagram>
</mxfile>
